<svg width="53" height="38" viewBox="0 0 53 38" fill="none" xmlns="http://www.w3.org/2000/svg">
<path d="M17.9864 2.232C17.9864 2.31733 17.9757 2.46667 17.9544 2.68C17.9544 2.872 17.9437 3.07467 17.9224 3.288C17.901 3.50133 17.869 3.69333 17.8264 3.864C17.7837 4.03467 17.741 4.12 17.6984 4.12C17.1864 6.46667 16.717 9.05867 16.2904 11.896C15.885 14.7333 15.3197 17.784 14.5944 21.048C14.445 21.6453 14.189 22.104 13.8264 22.424C13.4637 22.744 13.0584 22.9467 12.6104 23.032C12.1837 23.1387 11.7464 23.1387 11.2984 23.032C10.8504 22.9253 10.4664 22.744 10.1464 22.488C9.82638 22.0187 9.54904 21.3893 9.31438 20.6C9.07971 19.7893 8.86638 18.8933 8.67438 17.912C8.50371 16.9307 8.34371 15.9067 8.19438 14.84C8.06638 13.7733 7.94904 12.7387 7.84238 11.736C7.75704 10.712 7.67171 9.77333 7.58638 8.92C7.52238 8.04533 7.45838 7.32 7.39438 6.744C7.33038 6.40267 7.28771 6.008 7.26638 5.56C7.24504 5.112 7.14904 4.78133 6.97838 4.568C6.35971 5.69867 5.84771 6.936 5.44238 8.28C5.05838 9.624 4.72771 11.0107 4.45038 12.44C4.19438 13.848 3.98104 15.2667 3.81038 16.696C3.63971 18.1253 3.49038 19.4907 3.36238 20.792C3.29838 21.0693 3.23438 21.368 3.17038 21.688C3.10638 22.008 2.98904 22.2213 2.81838 22.328C2.71171 22.328 2.61571 22.264 2.53038 22.136C2.46638 21.9867 2.41304 21.8907 2.37038 21.848C2.28504 21.7413 2.23171 21.624 2.21038 21.496C2.18904 21.368 2.15704 21.2827 2.11438 21.24C2.05038 21.1333 1.97571 21.0267 1.89038 20.92C1.82638 20.792 1.76238 20.696 1.69838 20.632L1.60238 20.664L1.44238 20.44C1.39971 20.44 1.34638 20.44 1.28238 20.44C1.21838 20.44 1.16504 20.3867 1.12238 20.28C1.07971 20.3013 1.01571 20.2907 0.930375 20.248C0.866375 20.184 0.770375 20.1093 0.642375 20.024H0.514375C0.471708 19.9173 0.439708 19.8107 0.418375 19.704C0.397042 19.5973 0.354375 19.5013 0.290375 19.416C0.141042 17.944 0.098375 16.4293 0.162375 14.872C0.247708 13.3147 0.439708 11.8 0.738375 10.328C1.05838 8.83467 1.49571 7.43733 2.05038 6.136C2.60504 4.81333 3.29838 3.672 4.13038 2.712C4.59971 2.264 5.04771 1.98667 5.47438 1.88C5.90104 1.752 6.30638 1.752 6.69038 1.88C7.07438 2.008 7.43704 2.22133 7.77838 2.52C8.11971 2.81867 8.43971 3.16 8.73838 3.544C9.03704 3.928 9.30371 4.33333 9.53838 4.76C9.79438 5.16533 10.029 5.53867 10.2424 5.88C10.2424 5.944 10.2637 6.01867 10.3064 6.104C10.3277 6.14667 10.3597 6.17867 10.4024 6.2C10.5517 6.456 10.6797 6.85067 10.7864 7.384C10.9144 7.896 11.021 8.49333 11.1064 9.176C11.213 9.85867 11.2984 10.5947 11.3624 11.384C11.4477 12.152 11.5224 12.8987 11.5864 13.624C11.6717 14.3493 11.7464 15.032 11.8104 15.672C11.8744 16.2907 11.949 16.792 12.0344 17.176C12.0984 17.2827 12.141 17.4107 12.1624 17.56C12.1837 17.688 12.2264 17.7947 12.2904 17.88C12.3544 17.7733 12.3864 17.6773 12.3864 17.592C12.3864 17.5067 12.4184 17.4427 12.4824 17.4C12.7597 15.8 13.0157 14.2853 13.2504 12.856C13.5064 11.4053 13.7624 10.0293 14.0184 8.728C14.2744 7.40533 14.5517 6.15733 14.8504 4.984C15.149 3.78933 15.501 2.648 15.9064 1.56C15.9064 1.368 15.917 1.24 15.9384 1.176C15.981 1.09067 16.0237 1.03733 16.0664 1.016C16.1304 0.994666 16.1837 0.994666 16.2264 1.016C16.269 1.016 16.301 1.00533 16.3224 0.983999C16.3224 1.048 16.333 1.06933 16.3544 1.048L16.4184 0.983999C16.4824 1.02667 16.589 1.144 16.7384 1.336C16.8877 1.528 17.037 1.70933 17.1864 1.88C17.3357 2.05067 17.4744 2.18933 17.6024 2.296C17.7304 2.40267 17.8264 2.392 17.8904 2.264L17.9864 2.232ZM4.93038 6.968C4.93038 6.94667 4.94104 6.936 4.96238 6.936C5.00504 6.936 5.02638 6.95733 5.02638 7C5.02638 7.04267 5.02638 7.07467 5.02638 7.096C5.11171 6.88267 5.19704 6.70133 5.28238 6.552C5.36771 6.38133 5.45304 6.2 5.53838 6.008C5.64504 5.83733 5.71971 5.69867 5.76238 5.592C5.80504 5.464 5.84771 5.34667 5.89038 5.24C5.82638 5.38933 5.75171 5.53867 5.66638 5.688C5.60238 5.83733 5.53838 5.96533 5.47438 6.072C5.43171 6.17867 5.39971 6.24267 5.37838 6.264C5.35704 6.28533 5.35704 6.24267 5.37838 6.136C5.42104 6.02933 5.46371 5.93333 5.50638 5.848C5.57038 5.74133 5.61304 5.64533 5.63438 5.56C5.65571 5.51733 5.67704 5.45333 5.69838 5.368C5.74104 5.28267 5.78371 5.24 5.82638 5.24C5.82638 5.21867 5.81571 5.208 5.79438 5.208C5.79438 5.18667 5.79438 5.16533 5.79438 5.144C5.79438 5.08 5.81571 5.048 5.85838 5.048C5.90104 5.02667 5.95438 4.94133 6.01838 4.792C6.01838 4.74933 6.00771 4.73867 5.98638 4.76C5.98638 4.76 5.98638 4.73867 5.98638 4.696C6.02904 4.65333 6.07171 4.57867 6.11438 4.472C6.15704 4.36533 6.19971 4.29067 6.24238 4.248L6.21038 4.376C6.25304 4.376 6.27438 4.33333 6.27438 4.248C6.27438 4.22667 6.26371 4.20533 6.24238 4.184C6.26371 4.184 6.29571 4.16267 6.33838 4.12L6.37038 4.088C6.37038 4.13067 6.35971 4.152 6.33838 4.152C6.33838 4.152 6.33838 4.16267 6.33838 4.184C6.44504 4.07733 6.49838 3.96 6.49838 3.832C6.47704 3.78933 6.46638 3.768 6.46638 3.768C6.46638 3.704 6.47704 3.66133 6.49838 3.64C6.54104 3.61867 6.56238 3.58667 6.56238 3.544C6.41304 3.58667 6.27438 3.736 6.14638 3.992C6.03971 4.248 5.93304 4.46133 5.82638 4.632C5.84771 4.61067 5.85838 4.58933 5.85838 4.568C5.85838 4.54667 5.84771 4.536 5.82638 4.536V4.632C5.80504 4.71733 5.77304 4.78133 5.73038 4.824C5.70904 4.86667 5.67704 4.90933 5.63438 4.952C5.67704 4.824 5.69838 4.74933 5.69838 4.728L5.66638 4.696C5.64504 4.80267 5.61304 4.89867 5.57038 4.984C5.52771 5.048 5.48504 5.13333 5.44238 5.24C5.44238 5.368 5.42104 5.45333 5.37838 5.496C5.37838 5.45333 5.34638 5.432 5.28238 5.432C5.28238 5.45333 5.28238 5.47467 5.28238 5.496C5.30371 5.51733 5.31438 5.54933 5.31438 5.592L5.44238 5.4C5.37838 5.48533 5.32504 5.60267 5.28238 5.752H5.34638C5.30371 5.77333 5.26104 5.816 5.21838 5.88C5.17571 5.92267 5.15438 5.98667 5.15438 6.072C5.17571 6.11467 5.18638 6.136 5.18638 6.136L5.12238 6.328V6.36C5.14371 6.31733 5.18638 6.25333 5.25038 6.168C5.31438 6.06133 5.37838 5.93333 5.44238 5.784C5.44238 5.848 5.41038 5.96533 5.34638 6.136C5.30371 6.30667 5.28238 6.37067 5.28238 6.328C5.17571 6.328 5.12238 6.37067 5.12238 6.456V6.328C5.03704 6.52 4.95171 6.712 4.86638 6.904C4.78104 7.07467 4.73838 7.23467 4.73838 7.384H4.77038C4.77038 7.40533 4.75971 7.42667 4.73838 7.448C4.73838 7.448 4.73838 7.45867 4.73838 7.48V7.416V7.448V7.48V7.544V7.48C4.67438 7.48 4.61038 7.576 4.54638 7.768C4.50371 7.93867 4.48238 8.10933 4.48238 8.28V8.312C4.48238 8.33333 4.51438 8.344 4.57838 8.344C4.47171 8.38667 4.40771 8.44 4.38638 8.504C4.38638 8.568 4.38638 8.65333 4.38638 8.76C4.38638 8.80267 4.39704 8.824 4.41838 8.824C4.50371 8.568 4.61038 8.28 4.73838 7.96C4.88771 7.61867 4.96238 7.33067 4.96238 7.096C4.91971 7.16 4.89838 7.192 4.89838 7.192C4.89838 7.192 4.87704 7.20267 4.83438 7.224C4.83438 7.18133 4.85571 7.11733 4.89838 7.032C4.91971 7.032 4.94104 7.02133 4.96238 7L4.93038 6.968ZM6.46638 4.92C6.50904 4.856 6.54104 4.792 6.56238 4.728C6.58371 4.64267 6.63704 4.57867 6.72238 4.536C6.72238 4.42933 6.69038 4.35467 6.62638 4.312C6.51971 4.48267 6.42371 4.68533 6.33838 4.92C6.25304 5.13333 6.15704 5.336 6.05038 5.528V5.464C6.02904 5.44267 6.01838 5.42133 6.01838 5.4C6.01838 5.464 5.99704 5.51733 5.95438 5.56C5.91171 5.60267 5.86904 5.63467 5.82638 5.656H5.85838C5.90104 5.67733 5.92238 5.688 5.92238 5.688H5.95438V5.72C5.95438 5.74133 5.95438 5.752 5.95438 5.752C5.97571 5.752 5.98638 5.76267 5.98638 5.784C5.96504 5.784 5.93304 5.82667 5.89038 5.912C5.84771 5.99733 5.80504 6.09333 5.76238 6.2C5.71971 6.30667 5.67704 6.41333 5.63438 6.52C5.59171 6.60533 5.55971 6.648 5.53838 6.648C5.51704 6.69067 5.49571 6.75467 5.47438 6.84C5.47438 6.904 5.44238 6.95733 5.37838 7C5.42104 6.95733 5.45304 6.904 5.47438 6.84C5.49571 6.776 5.50638 6.72267 5.50638 6.68C5.48504 6.72267 5.47438 6.744 5.47438 6.744C5.45304 6.744 5.44238 6.73333 5.44238 6.712L5.37838 6.84C5.39971 6.86133 5.41038 6.88267 5.41038 6.904C5.41038 6.968 5.36771 7 5.28238 7C5.28238 7.064 5.25038 7.13867 5.18638 7.224C5.18638 7.24533 5.18638 7.26667 5.18638 7.288C5.20771 7.30933 5.21838 7.33067 5.21838 7.352C5.21838 7.37333 5.20771 7.384 5.18638 7.384V7.288C5.14371 7.352 5.12238 7.416 5.12238 7.48C5.16504 7.48 5.21838 7.448 5.28238 7.384L4.96238 8.44C5.00504 8.44 5.04771 8.344 5.09038 8.152C5.15438 7.93867 5.19704 7.81067 5.21838 7.768C5.23971 7.768 5.25038 7.77867 5.25038 7.8C5.29304 7.77867 5.31438 7.768 5.31438 7.768C5.31438 7.896 5.28238 8.01333 5.21838 8.12C5.15438 8.20533 5.12238 8.32267 5.12238 8.472C5.27171 8.13067 5.39971 7.8 5.50638 7.48C5.61304 7.13867 5.75171 6.744 5.92238 6.296L5.85838 6.328C5.85838 6.30667 5.84771 6.296 5.82638 6.296C5.82638 6.27467 5.82638 6.24267 5.82638 6.2C5.84771 6.15733 5.87971 6.136 5.92238 6.136C5.90104 6.17867 5.89038 6.2 5.89038 6.2C5.93304 6.2 5.95438 6.18933 5.95438 6.168V6.136H5.98638C5.96504 6.15733 5.95438 6.17867 5.95438 6.2C5.99704 6.2 6.01838 6.15733 6.01838 6.072C6.01838 5.96533 6.07171 5.86933 6.17838 5.784H6.14638C6.18904 5.656 6.25304 5.528 6.33838 5.4C6.44504 5.25067 6.51971 5.10133 6.56238 4.952H6.49838C6.49838 4.93067 6.48771 4.92 6.46638 4.92ZM5.44238 4.92C5.44238 4.94133 5.43171 4.96267 5.41038 4.984C5.41038 4.984 5.41038 5.00533 5.41038 5.048C5.41038 5.06933 5.42104 5.06933 5.44238 5.048C5.48504 5.00533 5.49571 4.96267 5.47438 4.92C5.55971 4.81333 5.64504 4.696 5.73038 4.568C5.81571 4.41867 5.85838 4.28 5.85838 4.152C5.85838 4.13067 5.84771 4.10933 5.82638 4.088V4.152C5.80504 4.19467 5.79438 4.216 5.79438 4.216V4.184C5.68771 4.33333 5.60238 4.504 5.53838 4.696C5.47438 4.86667 5.44238 4.94133 5.44238 4.92ZM4.77038 6.328C4.77038 6.392 4.75971 6.456 4.73838 6.52C4.73838 6.584 4.73838 6.63733 4.73838 6.68L4.89838 6.36C4.94104 6.25333 4.97304 6.15733 4.99438 6.072C5.03704 5.96533 5.06904 5.88 5.09038 5.816H5.05838L5.02638 5.784C4.98371 5.86933 4.93038 5.98667 4.86638 6.136C4.82371 6.264 4.79171 6.328 4.77038 6.328ZM11.3304 14.552C11.3517 14.552 11.3624 14.5627 11.3624 14.584L11.2344 13.336L11.1704 13.464L11.2024 13.432C11.2237 13.432 11.2344 13.4427 11.2344 13.464V13.496H11.2024C11.2237 13.5387 11.2344 13.6133 11.2344 13.72V13.816C11.2344 13.7947 11.2237 13.784 11.2024 13.784C11.2024 13.784 11.2024 13.7733 11.2024 13.752V13.88C11.2024 13.9867 11.2024 14.0933 11.2024 14.2C11.2237 14.2853 11.2557 14.3493 11.2984 14.392V14.296C11.3197 14.3387 11.3304 14.3813 11.3304 14.424C11.373 14.4667 11.373 14.5093 11.3304 14.552ZM11.1064 12.568C11.085 12.5893 11.0744 12.6107 11.0744 12.632C11.0744 12.6533 11.0744 12.6853 11.0744 12.728C11.0957 12.7493 11.1064 12.7813 11.1064 12.824V13.112C11.1064 13.1547 11.117 13.1867 11.1384 13.208V13.048C11.1597 13.0907 11.1597 13.1547 11.1384 13.24C11.1384 13.304 11.149 13.336 11.1704 13.336C11.1704 13.272 11.1704 13.208 11.1704 13.144C11.1917 13.08 11.1917 13.0053 11.1704 12.92C11.1704 12.7493 11.1597 12.5893 11.1384 12.44C11.117 12.2693 11.085 12.1307 11.0424 12.024C11.0637 12.1307 11.0637 12.2267 11.0424 12.312C11.0424 12.3973 11.0637 12.44 11.1064 12.44C11.085 12.44 11.0744 12.4613 11.0744 12.504C11.0744 12.5253 11.085 12.5467 11.1064 12.568ZM5.98638 3.992H6.01838C5.97571 4.12 5.92238 4.23733 5.85838 4.344C5.81571 4.45067 5.77304 4.568 5.73038 4.696C5.83704 4.46133 5.95438 4.22667 6.08238 3.992C6.23171 3.75733 6.37038 3.544 6.49838 3.352C6.39171 3.45867 6.29571 3.58667 6.21038 3.736C6.12504 3.88533 6.05038 3.96 5.98638 3.96V3.992ZM5.44238 6.584C5.50638 6.456 5.53838 6.43467 5.53838 6.52C5.58104 6.52 5.59171 6.49867 5.57038 6.456C5.57038 6.41333 5.59171 6.392 5.63438 6.392C5.63438 6.34933 5.60238 6.328 5.53838 6.328C5.51704 6.328 5.50638 6.31733 5.50638 6.296C5.52771 6.25333 5.53838 6.22133 5.53838 6.2C5.53838 6.15733 5.55971 6.11467 5.60238 6.072C5.47438 6.2 5.41038 6.33867 5.41038 6.488C5.41038 6.50933 5.41038 6.53067 5.41038 6.552C5.43171 6.552 5.44238 6.56267 5.44238 6.584ZM11.3624 15.256C11.3624 15.1067 11.341 14.968 11.2984 14.84C11.277 14.712 11.245 14.5733 11.2024 14.424C11.2237 14.5733 11.2344 14.7227 11.2344 14.872C11.2557 15 11.2984 15.128 11.3624 15.256ZM6.17838 5.592C6.13571 5.67733 6.09304 5.76267 6.05038 5.848C6.00771 5.93333 5.96504 6.02933 5.92238 6.136C5.96504 6.02933 6.00771 5.89067 6.05038 5.72C6.11438 5.528 6.18904 5.38933 6.27438 5.304L6.17838 5.624V5.592ZM5.89038 5.24C5.95438 5.09067 6.06104 4.90933 6.21038 4.696H6.17838C6.19971 4.65333 6.21038 4.632 6.21038 4.632C6.18904 4.632 6.16771 4.64267 6.14638 4.664C6.14638 4.68533 6.12504 4.696 6.08238 4.696C6.08238 4.65333 6.10371 4.61067 6.14638 4.568C6.18904 4.52533 6.21038 4.48267 6.21038 4.44L6.01838 4.696H6.05038V4.728C6.07171 4.77067 6.08238 4.792 6.08238 4.792L5.89038 5.24ZM5.12238 5.624C5.07971 5.66667 5.05838 5.70933 5.05838 5.752C5.05838 5.77333 5.06904 5.784 5.09038 5.784V5.816V5.784C5.11171 5.67733 5.15438 5.57067 5.21838 5.464C5.30371 5.35733 5.34638 5.24 5.34638 5.112C5.30371 5.19733 5.26104 5.29333 5.21838 5.4C5.19704 5.48533 5.16504 5.57067 5.12238 5.656V5.624ZM5.66638 5.4C5.66638 5.42133 5.65571 5.44267 5.63438 5.464C5.63438 5.48533 5.63438 5.51733 5.63438 5.56V5.528C5.63438 5.57067 5.60238 5.592 5.53838 5.592V5.432C5.55971 5.45333 5.58104 5.464 5.60238 5.464C5.60238 5.464 5.62371 5.44267 5.66638 5.4ZM11.4264 15.064C11.405 15 11.3944 14.936 11.3944 14.872C11.3944 14.7867 11.3944 14.712 11.3944 14.648C11.3944 14.712 11.3837 14.776 11.3624 14.84C11.3624 14.8827 11.373 14.9253 11.3944 14.968C11.3944 15.0107 11.405 15.0427 11.4264 15.064ZM4.64238 7.832C4.64238 7.78933 4.65304 7.74667 4.67438 7.704C4.69571 7.64 4.71704 7.58667 4.73838 7.544L4.77038 7.576C4.70638 7.61867 4.67438 7.672 4.67438 7.736C4.69571 7.8 4.68504 7.832 4.64238 7.832ZM5.53838 6.84C5.53838 6.79733 5.53838 6.76533 5.53838 6.744C5.55971 6.72267 5.57038 6.70133 5.57038 6.68C5.57038 6.70133 5.57038 6.72267 5.57038 6.744C5.59171 6.744 5.60238 6.75467 5.60238 6.776C5.60238 6.81867 5.58104 6.84 5.53838 6.84ZM5.12238 6.584C5.10104 6.62667 5.09038 6.65867 5.09038 6.68C5.09038 6.68 5.06904 6.70133 5.02638 6.744C5.02638 6.63733 5.05838 6.584 5.12238 6.584ZM5.60238 5.08V5.112C5.60238 5.13333 5.61304 5.15467 5.63438 5.176C5.59171 5.176 5.54904 5.21867 5.50638 5.304L5.60238 5.08ZM11.3304 14.712C11.3304 14.6693 11.3517 14.648 11.3944 14.648C11.373 14.6267 11.3624 14.6053 11.3624 14.584C11.341 14.6053 11.3304 14.648 11.3304 14.712ZM5.28238 7L5.31438 6.968C5.31438 6.94667 5.30371 6.936 5.28238 6.936V7ZM11.1064 12.664V12.568V12.664ZM5.60238 5.08C5.60238 5.03733 5.60238 5.016 5.60238 5.016C5.62371 4.99467 5.63438 4.97333 5.63438 4.952C5.63438 4.97333 5.62371 4.99467 5.60238 5.016C5.60238 5.016 5.60238 5.03733 5.60238 5.08ZM5.53838 6.648C5.53838 6.66933 5.54904 6.68 5.57038 6.68L5.53838 6.648ZM5.98638 5.592V5.624V5.592ZM5.98638 5.592L6.05038 5.528C6.00771 5.57067 5.98638 5.592 5.98638 5.592ZM4.77038 7.48H4.73838H4.77038ZM28.9041 15.672C28.8615 15.736 28.7975 15.864 28.7121 16.056C28.6268 16.2267 28.5521 16.312 28.4881 16.312C28.4881 16.2693 28.4561 16.2907 28.3921 16.376C28.3281 16.44 28.2961 16.504 28.2961 16.568C28.2321 16.6747 28.1895 16.76 28.1681 16.824C28.1468 16.8667 28.1148 16.92 28.0721 16.984C28.0935 16.984 28.0828 17.016 28.0401 17.08C27.9975 17.144 27.9655 17.1653 27.9441 17.144C27.9228 17.1867 27.8908 17.24 27.8481 17.304C27.8055 17.368 27.7628 17.4213 27.7201 17.464C27.5281 17.6773 27.3575 17.88 27.2081 18.072C27.0801 18.2427 26.9521 18.392 26.8241 18.52C26.7175 18.648 26.6428 18.7227 26.6001 18.744C26.5361 18.7867 26.4721 18.8187 26.4081 18.84C26.3441 18.8613 26.2801 18.9253 26.2161 19.032C26.0455 19.224 25.8961 19.3413 25.7681 19.384C25.6401 19.4267 25.4588 19.5013 25.2241 19.608C24.9468 19.672 24.7761 19.704 24.7121 19.704C24.6481 19.6827 24.5948 19.672 24.5521 19.672C24.1255 19.8213 23.7201 19.736 23.3361 19.416C22.9735 19.096 22.7175 18.744 22.5681 18.36C22.4615 18.104 22.3761 17.7733 22.3121 17.368C22.2695 16.9627 22.2375 16.536 22.2161 16.088C22.1948 15.6187 22.1841 15.16 22.1841 14.712C22.2055 14.2427 22.2268 13.816 22.2481 13.432C22.2055 13.4747 22.1735 13.5387 22.1521 13.624C22.1308 13.688 22.1201 13.7307 22.1201 13.752C21.9921 14.1573 21.8108 14.6267 21.5761 15.16C21.3415 15.672 21.0855 16.1733 20.8081 16.664C20.5521 17.1333 20.3068 17.528 20.0721 17.848C19.8375 18.168 19.6668 18.3173 19.5601 18.296C19.4535 18.4027 19.3681 18.5093 19.3041 18.616C19.2615 18.7013 19.1868 18.776 19.0801 18.84C18.6321 19.0533 18.1841 19 17.7361 18.68C17.5015 18.5093 17.3308 18.3067 17.2241 18.072C17.1388 17.8373 17.0961 17.5813 17.0961 17.304C17.1601 16.3013 17.3628 15.3627 17.7041 14.488C18.0668 13.592 18.4615 12.8027 18.8881 12.12C19.2081 11.6293 19.5708 11.1493 19.9761 10.68C20.4028 10.2107 20.9255 9.82667 21.5441 9.528C21.8855 9.35733 22.3015 9.32533 22.7921 9.432C23.2828 9.51733 23.6988 9.656 24.0401 9.848C24.1895 9.93333 24.2535 10.008 24.2321 10.072C24.2108 10.136 24.2001 10.1787 24.2001 10.2C24.1148 10.328 24.0081 10.3707 23.8801 10.328C23.8801 10.4347 23.9015 10.4987 23.9441 10.52C23.9868 10.52 24.0081 10.5627 24.0081 10.648C23.9868 10.7547 23.9655 10.8293 23.9441 10.872C23.9441 10.9147 23.9441 10.9893 23.9441 11.096C23.9441 11.1387 23.9441 11.1813 23.9441 11.224C23.9441 11.2453 23.9335 11.352 23.9121 11.544C23.9121 12.056 23.9121 12.6853 23.9121 13.432C23.9121 14.1573 23.9228 14.8827 23.9441 15.608C23.9655 16.312 23.9975 16.952 24.0401 17.528C24.1041 18.104 24.1788 18.488 24.2641 18.68C24.3708 18.7653 24.5628 18.7013 24.8401 18.488C25.1175 18.2533 25.4268 17.944 25.7681 17.56C26.1095 17.176 26.4721 16.7387 26.8561 16.248C27.2615 15.7573 27.6348 15.288 27.9761 14.84C28.3175 14.3707 28.6161 13.944 28.8721 13.56C29.1495 13.176 29.3415 12.8987 29.4481 12.728C29.5121 12.6427 29.5761 12.5467 29.6401 12.44C29.7255 12.312 29.8001 12.216 29.8641 12.152C29.9495 12.088 30.0135 12.0667 30.0561 12.088C30.1201 12.088 30.1735 12.1627 30.2161 12.312C30.2375 12.376 30.2695 12.4293 30.3121 12.472C30.3548 12.5147 30.3868 12.5893 30.4081 12.696C30.4721 13.0373 30.4295 13.3787 30.2801 13.72L30.1521 14.008C30.0241 14.0507 29.9708 14.104 29.9921 14.168C30.0348 14.2107 29.9921 14.296 29.8641 14.424C29.8215 14.5307 29.7575 14.6267 29.6721 14.712C29.6081 14.776 29.5548 14.8507 29.5121 14.936V14.872C29.5548 14.7867 29.5975 14.7227 29.6401 14.68C29.5975 14.68 29.5975 14.6373 29.6401 14.552C29.6188 14.5947 29.5975 14.6267 29.5761 14.648C29.5548 14.648 29.5335 14.6587 29.5121 14.68C29.5121 14.7013 29.5015 14.7333 29.4801 14.776C29.4588 14.7973 29.4481 14.7867 29.4481 14.744L29.1601 15.16C29.0321 15.288 28.9468 15.3947 28.9041 15.48C28.8828 15.544 28.7975 15.6613 28.6481 15.832L28.6801 15.864C28.7228 15.8213 28.7548 15.768 28.7761 15.704C28.8188 15.64 28.8721 15.608 28.9361 15.608V15.64L28.9041 15.672ZM18.8881 17.752C18.9308 17.7947 18.9628 17.784 18.9841 17.72C19.5815 16.6107 20.1361 15.576 20.6481 14.616C21.1601 13.656 21.7255 12.6107 22.3441 11.48C22.3655 11.352 22.4401 11.192 22.5681 11C22.7175 10.808 22.8241 10.6907 22.8881 10.648C22.7175 10.7547 22.5255 10.9147 22.3121 11.128C22.0988 11.3413 21.8855 11.5867 21.6721 11.864C21.4801 12.1413 21.2775 12.44 21.0641 12.76C20.8721 13.08 20.7015 13.4 20.5521 13.72C20.2321 14.3387 19.9121 15.0213 19.5921 15.768C19.2935 16.5147 19.0588 17.176 18.8881 17.752ZM28.0401 15.896C27.9975 15.8747 28.0081 15.8427 28.0721 15.8C28.1575 15.736 28.2001 15.6933 28.2001 15.672C28.2215 15.6507 28.2321 15.608 28.2321 15.544C28.2321 15.5227 28.2215 15.512 28.2001 15.512L28.1361 15.576C28.0721 15.64 28.0295 15.6933 28.0081 15.736C28.0721 15.672 28.0935 15.6613 28.0721 15.704C28.0508 15.7253 28.0188 15.7787 27.9761 15.864C27.9975 15.8213 27.9548 15.8853 27.8481 16.056C27.7415 16.2053 27.6561 16.3333 27.5921 16.44H27.6241C27.6028 16.4613 27.5921 16.472 27.5921 16.472C27.6348 16.472 27.6881 16.4293 27.7521 16.344C27.8375 16.2373 27.8695 16.1627 27.8481 16.12C27.8481 16.12 27.8801 16.12 27.9441 16.12C27.9868 16.0347 28.0081 15.992 28.0081 15.992C28.0295 15.9707 28.0401 15.9387 28.0401 15.896ZM28.0401 16.376C28.1041 16.3333 28.1468 16.2907 28.1681 16.248C28.1895 16.2053 28.2215 16.1627 28.2641 16.12C28.3068 16.0133 28.3281 15.9707 28.3281 15.992C28.3281 15.992 28.3068 15.9707 28.2641 15.928C28.2215 15.9707 28.1681 16.0347 28.1041 16.12C28.0401 16.184 27.9868 16.2693 27.9441 16.376C27.9228 16.3333 27.9121 16.3227 27.9121 16.344C27.9121 16.3653 27.9015 16.376 27.8801 16.376H27.8481V16.408L27.9121 16.472V16.504C27.9335 16.504 27.9548 16.472 27.9761 16.408C28.0188 16.3227 28.0508 16.28 28.0721 16.28L28.0401 16.376ZM21.2241 14.328V14.296L21.1921 14.264C21.1708 14.2853 21.1601 14.296 21.1601 14.296L21.2881 14.104V14.04C21.2455 14.0827 21.2241 14.1147 21.2241 14.136C21.2241 14.1147 21.2028 14.104 21.1601 14.104C21.1601 14.0613 21.1495 14.0827 21.1281 14.168C21.1068 14.232 21.0748 14.296 21.0321 14.36C21.0321 14.36 21.0748 14.3387 21.1601 14.296L21.0961 14.392L20.8081 14.712C20.8508 14.7333 20.8721 14.7333 20.8721 14.712C20.8935 14.6693 20.9361 14.6587 21.0001 14.68L21.2241 14.328ZM27.8481 17.048C27.9121 16.9413 27.9761 16.8773 28.0401 16.856C27.9975 16.8133 27.9975 16.7813 28.0401 16.76C28.0828 16.7387 28.0828 16.7067 28.0401 16.664L28.0081 16.696C28.0508 16.632 28.0721 16.6 28.0721 16.6C28.0935 16.5787 28.1041 16.5253 28.1041 16.44C28.0615 16.5467 28.0081 16.632 27.9441 16.696C27.8801 16.76 27.8268 16.8133 27.7841 16.856C27.8268 16.8773 27.8268 16.9093 27.7841 16.952C27.7415 16.9733 27.7628 17.0053 27.8481 17.048C27.7841 17.048 27.7521 17.0693 27.7521 17.112C27.7095 17.112 27.7095 17.144 27.7521 17.208L27.8481 17.048ZM29.4161 14.904V14.936H29.5121C29.4481 15 29.4161 15.0533 29.4161 15.096C29.4161 15.1387 29.3735 15.1707 29.2881 15.192C29.3308 15.192 29.3308 15.2133 29.2881 15.256C29.2455 15.2773 29.2241 15.2773 29.2241 15.256C29.2455 15.2987 29.2455 15.3307 29.2241 15.352C29.2028 15.3733 29.1815 15.3733 29.1601 15.352C29.1601 15.3307 29.1708 15.288 29.1921 15.224C29.2348 15.16 29.3095 15.0533 29.4161 14.904ZM28.0401 15.544C28.0828 15.5867 28.1255 15.544 28.1681 15.416C28.2321 15.288 28.2748 15.2133 28.2961 15.192C28.2535 15.1707 28.1895 15.2133 28.1041 15.32C28.0401 15.4267 28.0188 15.5013 28.0401 15.544ZM28.3921 15C28.3921 15.0213 28.4028 15.0427 28.4241 15.064C28.4455 15.0853 28.4455 15.1067 28.4241 15.128C28.4241 15.1493 28.4881 15.1067 28.6161 15C28.7441 14.872 28.7975 14.8187 28.7761 14.84C28.7548 14.8187 28.7335 14.808 28.7121 14.808C28.6481 14.808 28.6161 14.8187 28.6161 14.84C28.5521 14.904 28.5201 14.9573 28.5201 15H28.3921ZM21.5441 13.464C21.5868 13.4 21.6081 13.3467 21.6081 13.304C21.6295 13.24 21.6721 13.176 21.7361 13.112V13.048C21.7148 13.0693 21.7041 13.0907 21.7041 13.112C21.6828 13.1333 21.6615 13.144 21.6401 13.144C21.6188 13.144 21.6081 13.1547 21.6081 13.176C21.6081 13.1973 21.5975 13.1973 21.5761 13.176C21.5548 13.2187 21.5441 13.2507 21.5441 13.272C21.5655 13.272 21.5548 13.3147 21.5121 13.4V13.432C21.5121 13.4533 21.5228 13.464 21.5441 13.464ZM21.4161 14.744C21.4801 14.7867 21.5228 14.776 21.5441 14.712C21.5868 14.6267 21.6188 14.5733 21.6401 14.552C21.5975 14.5733 21.5548 14.6053 21.5121 14.648C21.4908 14.6907 21.4588 14.7227 21.4161 14.744ZM27.7201 16.696C27.7841 16.7173 27.8375 16.6853 27.8801 16.6L27.8161 16.536C27.7735 16.5787 27.7521 16.6107 27.7521 16.632C27.7521 16.6533 27.7415 16.6747 27.7201 16.696ZM21.4801 13.784C21.5015 13.7627 21.5228 13.752 21.5441 13.752C21.5868 13.752 21.6188 13.7307 21.6401 13.688L21.5761 13.656C21.5975 13.656 21.6188 13.6453 21.6401 13.624L21.7041 13.56C21.6188 13.5813 21.5548 13.6347 21.5121 13.72C21.5121 13.7413 21.5015 13.7627 21.4801 13.784ZM21.3521 14.712C21.3735 14.6693 21.4055 14.6373 21.4481 14.616C21.4908 14.5733 21.5228 14.5307 21.5441 14.488L21.3201 14.68L21.3521 14.712ZM21.2881 14.616L21.3201 14.584C21.3628 14.5413 21.3948 14.52 21.4161 14.52C21.4161 14.4987 21.4055 14.488 21.3841 14.488C21.3841 14.4667 21.3841 14.4453 21.3841 14.424C21.4268 14.36 21.4268 14.36 21.3841 14.424C21.3415 14.488 21.2988 14.552 21.2561 14.616H21.2881ZM28.3921 16.248C28.4135 16.2053 28.4241 16.184 28.4241 16.184C28.4668 16.1413 28.4988 16.0987 28.5201 16.056C28.5628 16.0133 28.5948 15.9707 28.6161 15.928L28.4241 16.12C28.4241 16.1413 28.4135 16.1627 28.3921 16.184C28.3921 16.2053 28.3921 16.2267 28.3921 16.248ZM22.0881 12.504C22.1308 12.5467 22.1948 12.4827 22.2801 12.312L22.2481 12.344C22.2055 12.3867 22.1841 12.3973 22.1841 12.376L22.0881 12.504ZM20.8721 15.192C20.8935 15.192 20.9148 15.1707 20.9361 15.128C21.0001 15.064 21.0108 15.032 20.9681 15.032C20.9468 15.032 20.9255 15.0427 20.9041 15.064C20.9041 15.128 20.8935 15.1707 20.8721 15.192ZM21.0001 14.296C20.9361 14.36 20.9041 14.392 20.9041 14.392V14.456C20.9041 14.456 20.9361 14.424 21.0001 14.36C21.0001 14.3173 21.0001 14.296 21.0001 14.296ZM21.0641 14.744C21.1068 14.7227 21.1281 14.712 21.1281 14.712V14.68C21.1921 14.616 21.1921 14.584 21.1281 14.584C21.1281 14.6267 21.1068 14.68 21.0641 14.744ZM27.6561 16.76C27.6988 16.76 27.7201 16.76 27.7201 16.76V16.696L27.6561 16.76ZM20.7441 14.808C20.7655 14.808 20.7868 14.7973 20.8081 14.776V14.744C20.7655 14.7867 20.7441 14.808 20.7441 14.808ZM29.6721 14.616C29.6508 14.6373 29.6401 14.648 29.6401 14.648V14.68C29.6615 14.6587 29.6721 14.6373 29.6721 14.616ZM37.6434 11.864C37.6647 11.9707 37.6754 12.0987 37.6754 12.248C37.6967 12.3973 37.7074 12.5573 37.7074 12.728C37.7074 13.4533 37.622 14.3813 37.4514 15.512C37.302 16.6427 37.0994 17.8907 36.8434 19.256C36.5874 20.6213 36.3207 22.0613 36.0434 23.576C35.766 25.0907 35.4994 26.584 35.2434 28.056C34.9874 29.5493 34.774 30.9787 34.6034 32.344C34.454 33.7093 34.3794 34.9253 34.3794 35.992C34.3794 36.0347 34.3687 36.056 34.3474 36.056C34.3047 36.056 34.294 36.0347 34.3154 35.992C34.3367 35.9707 34.326 35.96 34.2834 35.96C34.2407 35.96 34.2087 35.9707 34.1874 35.992C34.1874 36.0347 34.1554 36.0667 34.0914 36.088C34.07 35.9813 34.038 35.928 33.9954 35.928C33.9314 35.928 33.8674 36.0133 33.8034 36.184C33.7394 36.376 33.6754 36.4933 33.6114 36.536C33.3767 36.536 33.2594 36.5893 33.2594 36.696C33.2594 36.824 33.27 36.8987 33.2914 36.92H33.1954C33.174 36.92 33.1634 36.9093 33.1634 36.888C33.142 36.888 33.11 36.9093 33.0674 36.952C33.0247 36.888 33.0034 36.856 33.0034 36.856C32.8967 36.856 32.822 36.8987 32.7794 36.984C32.758 37.0907 32.726 37.144 32.6834 37.144C32.662 37.144 32.6514 37.1333 32.6514 37.112C32.6514 37.112 32.63 37.112 32.5874 37.112C32.5447 37.112 32.5127 37.144 32.4914 37.208C32.47 37.2933 32.438 37.3893 32.3954 37.496H32.3314C32.2887 37.496 32.2567 37.5173 32.2354 37.56C32.214 37.6027 32.1607 37.6453 32.0754 37.688C32.0114 37.752 31.9047 37.8053 31.7554 37.848C31.6274 37.8907 31.4354 37.912 31.1794 37.912C31.1154 37.912 31.0407 37.9013 30.9554 37.88C30.87 37.8587 30.7847 37.7733 30.6994 37.624C30.614 37.496 30.5394 37.2827 30.4754 36.984C30.4327 36.7067 30.4114 36.3013 30.4114 35.768C30.4114 35.6613 30.4114 35.5547 30.4114 35.448C30.4114 35.3413 30.422 35.2667 30.4434 35.224V35.128C30.4434 35 30.4754 34.8187 30.5394 34.584C30.5394 34.52 30.5287 34.456 30.5074 34.392C30.5074 34.328 30.5074 34.264 30.5074 34.2C30.5074 34.1147 30.5394 34.0507 30.6034 34.008C30.6034 33.944 30.5927 33.88 30.5714 33.816C30.5714 33.752 30.5714 33.6987 30.5714 33.656C30.5714 33.3147 30.6247 32.984 30.7314 32.664C30.838 32.3653 30.8914 32.0667 30.8914 31.768V31.512C30.8914 31.256 30.934 31.0747 31.0194 30.968C31.1047 30.2427 31.2327 29.496 31.4034 28.728C31.5954 27.96 31.6914 27.2453 31.6914 26.584H31.6274C31.606 26.584 31.5954 26.5733 31.5954 26.552C31.638 26.3387 31.702 26.1467 31.7874 25.976C31.8727 25.8267 31.9154 25.6667 31.9154 25.496H31.8834C31.862 25.496 31.8514 25.5067 31.8514 25.528C31.8514 25.5707 31.8194 25.6027 31.7554 25.624C31.862 25.048 31.99 24.376 32.1394 23.608C32.2887 22.8613 32.4274 22.0933 32.5554 21.304C32.7047 20.4933 32.8434 19.7147 32.9714 18.968C33.1207 18.2 33.2487 17.528 33.3554 16.952C33.142 17.208 32.9074 17.4747 32.6514 17.752C32.3954 18.008 32.1287 18.2427 31.8514 18.456C31.5954 18.6693 31.318 18.8507 31.0194 19C30.742 19.128 30.4647 19.192 30.1874 19.192C29.3554 19.192 28.7794 18.936 28.4594 18.424C28.1394 17.8907 27.9794 17.2507 27.9794 16.504C27.9794 16.0133 28.0327 15.5013 28.1394 14.968C28.246 14.4133 28.3847 13.8907 28.5554 13.4C28.726 12.9093 28.9074 12.4613 29.0994 12.056C29.3127 11.6293 29.5154 11.288 29.7074 11.032C29.814 10.904 29.9847 10.7973 30.2194 10.712C30.454 10.6267 30.6887 10.584 30.9234 10.584C31.1154 10.584 31.254 10.648 31.3394 10.776C31.446 10.904 31.4994 11.064 31.4994 11.256C31.4994 11.5547 31.414 11.896 31.2434 12.28C31.0727 12.6427 30.8807 13.0693 30.6674 13.56C30.4754 14.0293 30.294 14.552 30.1234 15.128C29.9527 15.704 29.8674 16.344 29.8674 17.048C29.8674 17.2827 29.8994 17.4853 29.9634 17.656C30.0487 17.8053 30.1767 17.88 30.3474 17.88C30.6247 17.88 30.966 17.6133 31.3714 17.08C31.7767 16.5467 32.1927 15.9173 32.6194 15.192C33.046 14.4667 33.4514 13.7413 33.8354 13.016C34.2407 12.2907 34.5927 11.7467 34.8914 11.384C34.998 11.256 35.1367 11.1493 35.3074 11.064C35.478 10.9573 35.6487 10.872 35.8194 10.808C36.0114 10.7227 36.1714 10.6587 36.2994 10.616C36.4274 10.5733 36.5127 10.552 36.5554 10.552C36.79 10.552 37.0034 10.68 37.1954 10.936C37.4087 11.1707 37.558 11.48 37.6434 11.864ZM31.8194 28.792C31.8407 28.6853 31.862 28.5787 31.8834 28.472C31.9047 28.3867 31.9154 28.3013 31.9154 28.216V28.12C31.8514 28.1413 31.798 28.2267 31.7554 28.376L31.6914 28.632C31.6914 28.696 31.702 28.7493 31.7234 28.792C31.638 28.984 31.5847 29.1547 31.5634 29.304C31.5847 29.3467 31.5954 29.4 31.5954 29.464C31.5954 29.5493 31.5634 29.592 31.4994 29.592V29.496C31.4994 29.368 31.51 29.24 31.5314 29.112C31.574 28.984 31.5954 28.856 31.5954 28.728V28.6C31.5527 28.6853 31.51 28.76 31.4674 28.824C31.446 28.9093 31.4354 29.0053 31.4354 29.112V29.176C31.3927 29.2187 31.35 29.304 31.3074 29.432C31.286 29.5813 31.254 29.7307 31.2114 29.88C31.19 30.0507 31.1687 30.2107 31.1474 30.36C31.126 30.5307 31.1154 30.6587 31.1154 30.744C31.1154 30.8293 31.126 30.8933 31.1474 30.936C31.1474 30.9147 31.158 30.8933 31.1794 30.872C31.222 30.872 31.2434 30.8507 31.2434 30.808V30.744C31.2434 30.7227 31.2647 30.7013 31.3074 30.68V30.744C31.3074 30.7867 31.2967 30.8187 31.2754 30.84C31.2754 30.8613 31.2754 30.8827 31.2754 30.904H31.3394C31.4034 30.8827 31.446 30.8293 31.4674 30.744L31.4994 30.84C31.5207 30.84 31.5314 30.8187 31.5314 30.776C31.5314 30.7333 31.5207 30.68 31.4994 30.616C31.478 30.5733 31.4674 30.5307 31.4674 30.488H31.4994C31.478 30.4667 31.4674 30.4347 31.4674 30.392C31.4674 30.328 31.478 30.264 31.4994 30.2C31.542 30.136 31.5634 30.072 31.5634 30.008C31.5634 29.9653 31.5527 29.9333 31.5314 29.912C31.5314 29.912 31.5314 29.8907 31.5314 29.848C31.4887 29.9547 31.4674 30.0507 31.4674 30.136C31.4674 30.2213 31.446 30.2853 31.4034 30.328C31.382 30.328 31.3714 30.3173 31.3714 30.296V30.168C31.414 30.1253 31.4247 30.04 31.4034 29.912C31.4034 29.784 31.446 29.6987 31.5314 29.656V29.784C31.5954 29.7413 31.6274 29.688 31.6274 29.624C31.6274 29.56 31.638 29.496 31.6594 29.432C31.702 29.4107 31.7234 29.4 31.7234 29.4C31.702 29.3787 31.6914 29.3573 31.6914 29.336V29.304C31.734 29.2613 31.7554 29.1973 31.7554 29.112C31.7767 29.048 31.8087 28.984 31.8514 28.92C31.83 28.8987 31.8194 28.8773 31.8194 28.856V28.792ZM31.4354 34.168C31.4567 34.0613 31.478 33.944 31.4994 33.816C31.542 33.7093 31.5634 33.6027 31.5634 33.496C31.5634 33.3467 31.4994 33.24 31.3714 33.176L31.3394 33.208C31.318 33.208 31.3074 33.1973 31.3074 33.176C31.3287 33.176 31.3287 33.176 31.3074 33.176C31.2647 33.176 31.2327 33.208 31.2114 33.272C31.2114 33.3573 31.2114 33.432 31.2114 33.496C31.2114 33.56 31.2327 33.6987 31.2754 33.912C31.19 34.1253 31.1474 34.3067 31.1474 34.456C31.1474 34.4987 31.1474 34.5307 31.1474 34.552C31.1687 34.5733 31.1794 34.6053 31.1794 34.648C31.222 34.5413 31.254 34.4667 31.2754 34.424C31.318 34.3813 31.3394 34.3173 31.3394 34.232C31.3394 34.2107 31.3287 34.2 31.3074 34.2C31.3074 34.2 31.3074 34.1893 31.3074 34.168C31.3287 34.168 31.3394 34.168 31.3394 34.168C31.3394 34.1893 31.35 34.2 31.3714 34.2C31.3927 34.2 31.414 34.1893 31.4354 34.168ZM31.4034 31.288C31.3394 31.3307 31.3074 31.3627 31.3074 31.384C31.3074 31.4053 31.318 31.416 31.3394 31.416H31.3714C31.35 31.4587 31.3394 31.512 31.3394 31.576C31.3394 31.6613 31.3074 31.736 31.2434 31.8V31.768L31.2114 31.736C31.1474 31.928 31.1154 32.1413 31.1154 32.376V32.536C31.158 32.4933 31.1794 32.408 31.1794 32.28C31.2007 32.152 31.2434 32.0667 31.3074 32.024C31.286 32.0027 31.2754 31.9813 31.2754 31.96C31.2754 31.9387 31.2647 31.9173 31.2434 31.896C31.2434 31.896 31.2434 31.8853 31.2434 31.864C31.3074 31.8213 31.3607 31.768 31.4034 31.704C31.382 31.768 31.3714 31.8747 31.3714 32.024C31.3714 32.0667 31.382 32.0987 31.4034 32.12C31.4887 32.056 31.5314 31.928 31.5314 31.736V31.608C31.574 31.5653 31.5954 31.5333 31.5954 31.512V31.448C31.574 31.4053 31.5634 31.3627 31.5634 31.32C31.5634 31.2773 31.5527 31.2453 31.5314 31.224L31.4354 31.544C31.4354 31.5013 31.414 31.4587 31.3714 31.416V31.384C31.3714 31.3627 31.3714 31.352 31.3714 31.352C31.3927 31.352 31.4034 31.3307 31.4034 31.288ZM30.7314 33.752C30.774 33.688 30.7954 33.592 30.7954 33.464C30.8167 33.336 30.8274 33.2187 30.8274 33.112V33.048C30.87 32.9413 30.9127 32.8453 30.9554 32.76C30.998 32.696 31.0194 32.6213 31.0194 32.536V32.44C30.9554 32.44 30.902 32.4933 30.8594 32.6C30.8167 32.7067 30.774 32.824 30.7314 32.952C30.71 33.1013 30.6887 33.2507 30.6674 33.4C30.6674 33.5493 30.6674 33.656 30.6674 33.72C30.6674 33.7413 30.678 33.752 30.6994 33.752H30.7314ZM31.0194 31.64C30.9554 31.768 30.9234 31.9707 30.9234 32.248V32.376C30.966 32.376 30.9874 32.312 30.9874 32.184C31.0087 32.0773 31.03 31.96 31.0514 31.832C31.0727 31.704 31.094 31.576 31.1154 31.448C31.1367 31.3413 31.19 31.288 31.2754 31.288C31.2327 31.16 31.2007 31.0853 31.1794 31.064C31.158 31.064 31.158 31.064 31.1794 31.064C31.0727 31.064 31.0194 31.2027 31.0194 31.48V31.64ZM32.0114 27.768C32.054 27.4267 32.1287 27.0853 32.2354 26.744C32.1074 26.808 32.022 26.9253 31.9794 27.096C31.9367 27.288 31.9154 27.4587 31.9154 27.608V27.672L31.8514 27.704C31.894 27.7467 31.9047 27.7787 31.8834 27.8C31.862 27.8427 31.8727 27.864 31.9154 27.864C31.958 27.864 31.9687 27.8427 31.9474 27.8C31.9474 27.7787 31.9687 27.768 32.0114 27.768ZM30.8914 35.864C30.934 35.8427 30.9554 35.8 30.9554 35.736V35.544C30.9554 35.48 30.966 35.4267 30.9874 35.384C30.9234 35.4053 30.8807 35.4267 30.8594 35.448C30.8594 35.4907 30.8487 35.512 30.8274 35.512C30.8274 35.4053 30.8274 35.32 30.8274 35.256C30.8274 35.192 30.806 35.1173 30.7634 35.032C30.742 35.096 30.7314 35.192 30.7314 35.32V35.768C30.774 35.8107 30.806 35.832 30.8274 35.832C30.87 35.832 30.8914 35.8427 30.8914 35.864ZM30.8914 34.456C30.8914 34.4133 30.902 34.3387 30.9234 34.232C30.9447 34.1467 30.9554 34.072 30.9554 34.008L30.9234 33.944C30.9234 33.9013 30.934 33.8693 30.9554 33.848C30.9767 33.848 30.9874 33.8267 30.9874 33.784C30.9874 33.7627 30.966 33.7307 30.9234 33.688C30.9234 33.6453 30.934 33.6133 30.9554 33.592C30.9767 33.5707 30.9874 33.5387 30.9874 33.496C30.9874 33.4747 30.9767 33.4533 30.9554 33.432C30.934 33.5387 30.902 33.6453 30.8594 33.752C30.838 33.8587 30.8274 33.9867 30.8274 34.136C30.8487 34.1573 30.8594 34.1893 30.8594 34.232C30.8594 34.3173 30.8487 34.3813 30.8274 34.424C30.806 34.488 30.7954 34.5413 30.7954 34.584V34.616C30.838 34.5947 30.8594 34.584 30.8594 34.584V34.52C30.8594 34.4987 30.87 34.4773 30.8914 34.456ZM30.6354 35.192C30.6567 35.192 30.6674 35.1813 30.6674 35.16C30.646 35.16 30.6354 35.1493 30.6354 35.128V35.064C30.6354 34.9147 30.646 34.744 30.6674 34.552C30.6887 34.3813 30.7207 34.2107 30.7634 34.04L30.6354 34.072C30.6354 34.1573 30.6247 34.232 30.6034 34.296C30.6034 34.3813 30.6034 34.4773 30.6034 34.584V34.712C30.582 34.7547 30.5714 34.808 30.5714 34.872C30.5714 34.9147 30.5927 35.0213 30.6354 35.192ZM32.2994 25.112C32.342 25.048 32.3847 24.9627 32.4274 24.856C32.4914 24.7707 32.5234 24.6747 32.5234 24.568V24.504C32.438 24.4827 32.374 24.5573 32.3314 24.728C32.31 24.8987 32.2994 25.0267 32.2994 25.112ZM31.7874 27.672C31.7874 27.544 31.798 27.416 31.8194 27.288C31.862 27.16 31.8834 27.032 31.8834 26.904C31.862 26.9467 31.83 27 31.7874 27.064C31.766 27.128 31.7554 27.192 31.7554 27.256C31.7554 27.32 31.766 27.3627 31.7874 27.384C31.7447 27.384 31.7234 27.4267 31.7234 27.512C31.7234 27.576 31.7447 27.6293 31.7874 27.672ZM31.4674 33.912C31.4247 33.9547 31.3927 33.976 31.3714 33.976C31.3287 33.976 31.3074 33.9333 31.3074 33.848C31.3074 33.6987 31.3394 33.592 31.4034 33.528C31.4034 33.592 31.4034 33.6453 31.4034 33.688C31.4247 33.752 31.446 33.8267 31.4674 33.912ZM31.5954 28.44C31.6594 28.3333 31.6914 28.2373 31.6914 28.152C31.6914 28.088 31.702 28.0133 31.7234 27.928C31.6807 27.992 31.6487 28.056 31.6274 28.12C31.606 28.184 31.5954 28.2693 31.5954 28.376V28.44ZM31.0194 36.632C31.0194 36.5893 31.0087 36.5467 30.9874 36.504C30.9874 36.4613 30.9874 36.4187 30.9874 36.376C30.9447 36.4187 30.9234 36.4613 30.9234 36.504C30.9234 36.5467 30.902 36.5787 30.8594 36.6C30.902 36.6 30.9234 36.6107 30.9234 36.632C30.9447 36.6747 30.9767 36.696 31.0194 36.696V36.632ZM31.4034 36.184C31.446 36.1413 31.4674 36.088 31.4674 36.024C31.4887 35.9813 31.4994 35.9387 31.4994 35.896L31.4034 35.928C31.4034 35.9493 31.3927 35.9707 31.3714 35.992C31.3714 36.0347 31.3714 36.0773 31.3714 36.12C31.3714 36.1413 31.382 36.1627 31.4034 36.184ZM30.9874 32.76C30.9874 32.8667 30.998 32.952 31.0194 33.016C31.062 33.016 31.0834 32.9733 31.0834 32.888V32.76H30.9874ZM31.5634 31.16C31.5847 31.096 31.606 31.032 31.6274 30.968C31.67 30.904 31.6914 30.84 31.6914 30.776L31.5954 30.84C31.5954 30.904 31.5847 30.9467 31.5634 30.968C31.5634 31.0107 31.5634 31.0533 31.5634 31.096V31.16ZM30.7634 33.976C30.742 33.9547 30.7314 33.9333 30.7314 33.912V33.784C30.71 33.8053 30.6887 33.816 30.6674 33.816C30.646 33.816 30.6354 33.8373 30.6354 33.88C30.6354 33.8587 30.6354 33.8693 30.6354 33.912C30.6354 33.9547 30.6567 33.976 30.6994 33.976H30.7634ZM31.0514 34.008C31.094 33.9653 31.1154 33.912 31.1154 33.848C31.1154 33.8053 31.1047 33.7733 31.0834 33.752C31.0834 33.7307 31.0834 33.7093 31.0834 33.688V33.72C31.0834 33.7627 31.0727 33.7947 31.0514 33.816C31.03 33.8587 31.0194 33.9013 31.0194 33.944C31.0194 33.9867 31.03 34.008 31.0514 34.008ZM32.1074 25.944C32.1074 25.9013 32.1074 25.8693 32.1074 25.848C32.1287 25.848 32.1394 25.8267 32.1394 25.784C32.118 25.784 32.086 25.8053 32.0434 25.848C32.0007 25.8907 31.9794 25.9333 31.9794 25.976L32.1074 25.944ZM31.4354 34.424C31.478 34.424 31.4994 34.4027 31.4994 34.36C31.4994 34.3387 31.4887 34.3173 31.4674 34.296C31.4674 34.296 31.4674 34.2747 31.4674 34.232L31.3714 34.264L31.4354 34.424ZM30.6354 35.256L30.5394 35.288C30.518 35.288 30.5074 35.2987 30.5074 35.32C30.5074 35.3413 30.518 35.3627 30.5394 35.384C30.5607 35.4267 30.5714 35.4587 30.5714 35.48L30.6354 35.256ZM31.6594 31.896C31.6594 31.8533 31.67 31.8107 31.6914 31.768C31.7127 31.7467 31.7234 31.7147 31.7234 31.672C31.7234 31.6293 31.702 31.5867 31.6594 31.544V31.896ZM30.8274 36.056C30.8274 36.0987 30.838 36.1307 30.8594 36.152C30.902 36.1947 30.9234 36.216 30.9234 36.216C30.9447 36.216 30.9554 36.2053 30.9554 36.184C30.9554 36.1413 30.9554 36.12 30.9554 36.12C30.9554 36.1413 30.9447 36.12 30.9234 36.056H30.8274ZM30.8914 33.4C30.9554 33.4 30.9874 33.3787 30.9874 33.336V33.272C30.9234 33.272 30.8914 33.3147 30.8914 33.4ZM31.4034 31.704C31.4034 31.64 31.414 31.5867 31.4354 31.544V31.576C31.4354 31.5973 31.4247 31.608 31.4034 31.608C31.4034 31.6293 31.4034 31.6613 31.4034 31.704ZM50.8104 15.672C50.7677 15.736 50.7037 15.864 50.6184 16.056C50.533 16.2267 50.4584 16.312 50.3944 16.312C50.3944 16.2693 50.3624 16.2907 50.2984 16.376C50.2344 16.44 50.2024 16.504 50.2024 16.568C50.1384 16.6747 50.0957 16.76 50.0744 16.824C50.053 16.8667 50.021 16.92 49.9784 16.984C49.9997 16.984 49.989 17.016 49.9464 17.08C49.9037 17.144 49.8717 17.1653 49.8504 17.144C49.829 17.1867 49.797 17.24 49.7544 17.304C49.7117 17.368 49.669 17.4213 49.6264 17.464C49.4344 17.6773 49.2637 17.88 49.1144 18.072C48.9864 18.2427 48.8584 18.392 48.7304 18.52C48.6237 18.648 48.549 18.7227 48.5064 18.744C48.4424 18.7867 48.3784 18.8187 48.3144 18.84C48.2504 18.8613 48.1864 18.9253 48.1224 19.032C47.9517 19.224 47.8024 19.3413 47.6744 19.384C47.5464 19.4267 47.365 19.5013 47.1304 19.608C46.853 19.672 46.6824 19.704 46.6184 19.704C46.5544 19.6827 46.501 19.672 46.4584 19.672C46.0317 19.8213 45.6264 19.736 45.2424 19.416C44.8797 19.096 44.6237 18.744 44.4744 18.36C44.3677 18.104 44.2824 17.7733 44.2184 17.368C44.1757 16.9627 44.1437 16.536 44.1224 16.088C44.101 15.6187 44.0904 15.16 44.0904 14.712C44.1117 14.2427 44.133 13.816 44.1544 13.432C44.1117 13.4747 44.0797 13.5387 44.0584 13.624C44.037 13.688 44.0264 13.7307 44.0264 13.752C43.8984 14.1573 43.717 14.6267 43.4824 15.16C43.2477 15.672 42.9917 16.1733 42.7144 16.664C42.4584 17.1333 42.213 17.528 41.9784 17.848C41.7437 18.168 41.573 18.3173 41.4664 18.296C41.3597 18.4027 41.2744 18.5093 41.2104 18.616C41.1677 18.7013 41.093 18.776 40.9864 18.84C40.5384 19.0533 40.0904 19 39.6424 18.68C39.4077 18.5093 39.237 18.3067 39.1304 18.072C39.045 17.8373 39.0024 17.5813 39.0024 17.304C39.0664 16.3013 39.269 15.3627 39.6104 14.488C39.973 13.592 40.3677 12.8027 40.7944 12.12C41.1144 11.6293 41.477 11.1493 41.8824 10.68C42.309 10.2107 42.8317 9.82667 43.4504 9.528C43.7917 9.35733 44.2077 9.32533 44.6984 9.432C45.189 9.51733 45.605 9.656 45.9464 9.848C46.0957 9.93333 46.1597 10.008 46.1384 10.072C46.117 10.136 46.1064 10.1787 46.1064 10.2C46.021 10.328 45.9144 10.3707 45.7864 10.328C45.7864 10.4347 45.8077 10.4987 45.8504 10.52C45.893 10.52 45.9144 10.5627 45.9144 10.648C45.893 10.7547 45.8717 10.8293 45.8504 10.872C45.8504 10.9147 45.8504 10.9893 45.8504 11.096C45.8504 11.1387 45.8504 11.1813 45.8504 11.224C45.8504 11.2453 45.8397 11.352 45.8184 11.544C45.8184 12.056 45.8184 12.6853 45.8184 13.432C45.8184 14.1573 45.829 14.8827 45.8504 15.608C45.8717 16.312 45.9037 16.952 45.9464 17.528C46.0104 18.104 46.085 18.488 46.1704 18.68C46.277 18.7653 46.469 18.7013 46.7464 18.488C47.0237 18.2533 47.333 17.944 47.6744 17.56C48.0157 17.176 48.3784 16.7387 48.7624 16.248C49.1677 15.7573 49.541 15.288 49.8824 14.84C50.2237 14.3707 50.5224 13.944 50.7784 13.56C51.0557 13.176 51.2477 12.8987 51.3544 12.728C51.4184 12.6427 51.4824 12.5467 51.5464 12.44C51.6317 12.312 51.7064 12.216 51.7704 12.152C51.8557 12.088 51.9197 12.0667 51.9624 12.088C52.0264 12.088 52.0797 12.1627 52.1224 12.312C52.1437 12.376 52.1757 12.4293 52.2184 12.472C52.261 12.5147 52.293 12.5893 52.3144 12.696C52.3784 13.0373 52.3357 13.3787 52.1864 13.72L52.0584 14.008C51.9304 14.0507 51.877 14.104 51.8984 14.168C51.941 14.2107 51.8984 14.296 51.7704 14.424C51.7277 14.5307 51.6637 14.6267 51.5784 14.712C51.5144 14.776 51.461 14.8507 51.4184 14.936V14.872C51.461 14.7867 51.5037 14.7227 51.5464 14.68C51.5037 14.68 51.5037 14.6373 51.5464 14.552C51.525 14.5947 51.5037 14.6267 51.4824 14.648C51.461 14.648 51.4397 14.6587 51.4184 14.68C51.4184 14.7013 51.4077 14.7333 51.3864 14.776C51.365 14.7973 51.3544 14.7867 51.3544 14.744L51.0664 15.16C50.9384 15.288 50.853 15.3947 50.8104 15.48C50.789 15.544 50.7037 15.6613 50.5544 15.832L50.5864 15.864C50.629 15.8213 50.661 15.768 50.6824 15.704C50.725 15.64 50.7784 15.608 50.8424 15.608V15.64L50.8104 15.672ZM40.7944 17.752C40.837 17.7947 40.869 17.784 40.8904 17.72C41.4877 16.6107 42.0424 15.576 42.5544 14.616C43.0664 13.656 43.6317 12.6107 44.2504 11.48C44.2717 11.352 44.3464 11.192 44.4744 11C44.6237 10.808 44.7304 10.6907 44.7944 10.648C44.6237 10.7547 44.4317 10.9147 44.2184 11.128C44.005 11.3413 43.7917 11.5867 43.5784 11.864C43.3864 12.1413 43.1837 12.44 42.9704 12.76C42.7784 13.08 42.6077 13.4 42.4584 13.72C42.1384 14.3387 41.8184 15.0213 41.4984 15.768C41.1997 16.5147 40.965 17.176 40.7944 17.752ZM49.9464 15.896C49.9037 15.8747 49.9144 15.8427 49.9784 15.8C50.0637 15.736 50.1064 15.6933 50.1064 15.672C50.1277 15.6507 50.1384 15.608 50.1384 15.544C50.1384 15.5227 50.1277 15.512 50.1064 15.512L50.0424 15.576C49.9784 15.64 49.9357 15.6933 49.9144 15.736C49.9784 15.672 49.9997 15.6613 49.9784 15.704C49.957 15.7253 49.925 15.7787 49.8824 15.864C49.9037 15.8213 49.861 15.8853 49.7544 16.056C49.6477 16.2053 49.5624 16.3333 49.4984 16.44H49.5304C49.509 16.4613 49.4984 16.472 49.4984 16.472C49.541 16.472 49.5944 16.4293 49.6584 16.344C49.7437 16.2373 49.7757 16.1627 49.7544 16.12C49.7544 16.12 49.7864 16.12 49.8504 16.12C49.893 16.0347 49.9144 15.992 49.9144 15.992C49.9357 15.9707 49.9464 15.9387 49.9464 15.896ZM49.9464 16.376C50.0104 16.3333 50.053 16.2907 50.0744 16.248C50.0957 16.2053 50.1277 16.1627 50.1704 16.12C50.213 16.0133 50.2344 15.9707 50.2344 15.992C50.2344 15.992 50.213 15.9707 50.1704 15.928C50.1277 15.9707 50.0744 16.0347 50.0104 16.12C49.9464 16.184 49.893 16.2693 49.8504 16.376C49.829 16.3333 49.8184 16.3227 49.8184 16.344C49.8184 16.3653 49.8077 16.376 49.7864 16.376H49.7544V16.408L49.8184 16.472V16.504C49.8397 16.504 49.861 16.472 49.8824 16.408C49.925 16.3227 49.957 16.28 49.9784 16.28L49.9464 16.376ZM43.1304 14.328V14.296L43.0984 14.264C43.077 14.2853 43.0664 14.296 43.0664 14.296L43.1944 14.104V14.04C43.1517 14.0827 43.1304 14.1147 43.1304 14.136C43.1304 14.1147 43.109 14.104 43.0664 14.104C43.0664 14.0613 43.0557 14.0827 43.0344 14.168C43.013 14.232 42.981 14.296 42.9384 14.36C42.9384 14.36 42.981 14.3387 43.0664 14.296L43.0024 14.392L42.7144 14.712C42.757 14.7333 42.7784 14.7333 42.7784 14.712C42.7997 14.6693 42.8424 14.6587 42.9064 14.68L43.1304 14.328ZM49.7544 17.048C49.8184 16.9413 49.8824 16.8773 49.9464 16.856C49.9037 16.8133 49.9037 16.7813 49.9464 16.76C49.989 16.7387 49.989 16.7067 49.9464 16.664L49.9144 16.696C49.957 16.632 49.9784 16.6 49.9784 16.6C49.9997 16.5787 50.0104 16.5253 50.0104 16.44C49.9677 16.5467 49.9144 16.632 49.8504 16.696C49.7864 16.76 49.733 16.8133 49.6904 16.856C49.733 16.8773 49.733 16.9093 49.6904 16.952C49.6477 16.9733 49.669 17.0053 49.7544 17.048C49.6904 17.048 49.6584 17.0693 49.6584 17.112C49.6157 17.112 49.6157 17.144 49.6584 17.208L49.7544 17.048ZM51.3224 14.904V14.936H51.4184C51.3544 15 51.3224 15.0533 51.3224 15.096C51.3224 15.1387 51.2797 15.1707 51.1944 15.192C51.237 15.192 51.237 15.2133 51.1944 15.256C51.1517 15.2773 51.1304 15.2773 51.1304 15.256C51.1517 15.2987 51.1517 15.3307 51.1304 15.352C51.109 15.3733 51.0877 15.3733 51.0664 15.352C51.0664 15.3307 51.077 15.288 51.0984 15.224C51.141 15.16 51.2157 15.0533 51.3224 14.904ZM49.9464 15.544C49.989 15.5867 50.0317 15.544 50.0744 15.416C50.1384 15.288 50.181 15.2133 50.2024 15.192C50.1597 15.1707 50.0957 15.2133 50.0104 15.32C49.9464 15.4267 49.925 15.5013 49.9464 15.544ZM50.2984 15C50.2984 15.0213 50.309 15.0427 50.3304 15.064C50.3517 15.0853 50.3517 15.1067 50.3304 15.128C50.3304 15.1493 50.3944 15.1067 50.5224 15C50.6504 14.872 50.7037 14.8187 50.6824 14.84C50.661 14.8187 50.6397 14.808 50.6184 14.808C50.5544 14.808 50.5224 14.8187 50.5224 14.84C50.4584 14.904 50.4264 14.9573 50.4264 15H50.2984ZM43.4504 13.464C43.493 13.4 43.5144 13.3467 43.5144 13.304C43.5357 13.24 43.5784 13.176 43.6424 13.112V13.048C43.621 13.0693 43.6104 13.0907 43.6104 13.112C43.589 13.1333 43.5677 13.144 43.5464 13.144C43.525 13.144 43.5144 13.1547 43.5144 13.176C43.5144 13.1973 43.5037 13.1973 43.4824 13.176C43.461 13.2187 43.4504 13.2507 43.4504 13.272C43.4717 13.272 43.461 13.3147 43.4184 13.4V13.432C43.4184 13.4533 43.429 13.464 43.4504 13.464ZM43.3224 14.744C43.3864 14.7867 43.429 14.776 43.4504 14.712C43.493 14.6267 43.525 14.5733 43.5464 14.552C43.5037 14.5733 43.461 14.6053 43.4184 14.648C43.397 14.6907 43.365 14.7227 43.3224 14.744ZM49.6264 16.696C49.6904 16.7173 49.7437 16.6853 49.7864 16.6L49.7224 16.536C49.6797 16.5787 49.6584 16.6107 49.6584 16.632C49.6584 16.6533 49.6477 16.6747 49.6264 16.696ZM43.3864 13.784C43.4077 13.7627 43.429 13.752 43.4504 13.752C43.493 13.752 43.525 13.7307 43.5464 13.688L43.4824 13.656C43.5037 13.656 43.525 13.6453 43.5464 13.624L43.6104 13.56C43.525 13.5813 43.461 13.6347 43.4184 13.72C43.4184 13.7413 43.4077 13.7627 43.3864 13.784ZM43.2584 14.712C43.2797 14.6693 43.3117 14.6373 43.3544 14.616C43.397 14.5733 43.429 14.5307 43.4504 14.488L43.2264 14.68L43.2584 14.712ZM43.1944 14.616L43.2264 14.584C43.269 14.5413 43.301 14.52 43.3224 14.52C43.3224 14.4987 43.3117 14.488 43.2904 14.488C43.2904 14.4667 43.2904 14.4453 43.2904 14.424C43.333 14.36 43.333 14.36 43.2904 14.424C43.2477 14.488 43.205 14.552 43.1624 14.616H43.1944ZM50.2984 16.248C50.3197 16.2053 50.3304 16.184 50.3304 16.184C50.373 16.1413 50.405 16.0987 50.4264 16.056C50.469 16.0133 50.501 15.9707 50.5224 15.928L50.3304 16.12C50.3304 16.1413 50.3197 16.1627 50.2984 16.184C50.2984 16.2053 50.2984 16.2267 50.2984 16.248ZM43.9944 12.504C44.037 12.5467 44.101 12.4827 44.1864 12.312L44.1544 12.344C44.1117 12.3867 44.0904 12.3973 44.0904 12.376L43.9944 12.504ZM42.7784 15.192C42.7997 15.192 42.821 15.1707 42.8424 15.128C42.9064 15.064 42.917 15.032 42.8744 15.032C42.853 15.032 42.8317 15.0427 42.8104 15.064C42.8104 15.128 42.7997 15.1707 42.7784 15.192ZM42.9064 14.296C42.8424 14.36 42.8104 14.392 42.8104 14.392V14.456C42.8104 14.456 42.8424 14.424 42.9064 14.36C42.9064 14.3173 42.9064 14.296 42.9064 14.296ZM42.9704 14.744C43.013 14.7227 43.0344 14.712 43.0344 14.712V14.68C43.0984 14.616 43.0984 14.584 43.0344 14.584C43.0344 14.6267 43.013 14.68 42.9704 14.744ZM49.5624 16.76C49.605 16.76 49.6264 16.76 49.6264 16.76V16.696L49.5624 16.76ZM42.6504 14.808C42.6717 14.808 42.693 14.7973 42.7144 14.776V14.744C42.6717 14.7867 42.6504 14.808 42.6504 14.808ZM51.5784 14.616C51.557 14.6373 51.5464 14.648 51.5464 14.648V14.68C51.5677 14.6587 51.5784 14.6373 51.5784 14.616Z" fill="#4E342E"/>
</svg>
