<svg width="75" height="22" viewBox="0 0 75 22" fill="none" xmlns="http://www.w3.org/2000/svg">
<path d="M11.5855 4.784C10.7748 5.14667 10.0495 5.63733 9.4095 6.256C8.7695 6.87467 8.20417 7.568 7.7135 8.336C7.24417 9.104 6.8495 9.936 6.5295 10.832C6.2095 11.7067 5.9535 12.5707 5.7615 13.424C5.71883 13.7653 5.68683 14.256 5.6655 14.896C5.6655 15.5147 5.71883 16.144 5.8255 16.784C5.93217 17.4027 6.12417 17.9467 6.4015 18.416C6.70017 18.864 7.1375 19.088 7.7135 19.088C8.14017 19.088 8.49217 19.024 8.7695 18.896C9.06817 18.768 9.3455 18.5973 9.6015 18.384C9.96417 18.1067 10.2735 17.7867 10.5295 17.424C10.7855 17.0613 11.0202 16.6773 11.2335 16.272C11.7668 15.1627 12.1935 13.9893 12.5135 12.752C12.8548 11.4933 13.1002 10.224 13.2495 8.944C13.2495 8.58133 13.2282 8.18667 13.1855 7.76C13.1428 7.33333 13.0575 6.94933 12.9295 6.608C12.9295 6.544 12.9188 6.48 12.8975 6.416C12.8762 6.352 12.8868 6.288 12.9295 6.224C12.9295 6.11733 12.9722 6.064 13.0575 6.064C13.1642 6.04267 13.2495 6.05333 13.3135 6.096L13.5375 6.544C13.6442 6.544 13.7722 6.66133 13.9215 6.896C14.0708 7.13067 14.1562 7.30133 14.1775 7.408C14.2842 7.51467 14.3802 7.62133 14.4655 7.728C14.5508 7.83467 14.6148 7.97333 14.6575 8.144C14.7002 8.16533 14.7108 8.208 14.6895 8.272C14.6682 8.31467 14.6788 8.35733 14.7215 8.4C14.8708 8.464 14.9882 8.61333 15.0735 8.848C15.1802 9.08267 15.2548 9.36 15.2975 9.68C15.3615 9.97867 15.4042 10.2773 15.4255 10.576C15.4468 10.8747 15.4575 11.12 15.4575 11.312C15.4575 12.208 15.3402 13.168 15.1055 14.192C14.8922 15.216 14.5615 16.208 14.1135 17.168C13.6655 18.1067 13.1002 18.96 12.4175 19.728C11.7562 20.496 10.9882 21.072 10.1135 21.456C9.70817 21.6267 9.2815 21.7333 8.8335 21.776C8.3855 21.7973 7.92683 21.7653 7.4575 21.68C6.98817 21.5947 6.5295 21.456 6.0815 21.264C5.65483 21.072 5.2495 20.848 4.8655 20.592C4.07617 20.0587 3.40417 19.5253 2.8495 18.992C2.31617 18.4587 1.87883 17.8827 1.5375 17.264C1.2175 16.624 0.9935 15.9307 0.8655 15.184C0.758833 14.416 0.7375 13.5307 0.8015 12.528C0.8015 11.4827 1.04683 10.3093 1.5375 9.008C2.02817 7.70667 2.67883 6.45867 3.4895 5.264C4.3215 4.06933 5.27083 3.024 6.3375 2.128C7.40417 1.232 8.50283 0.655999 9.6335 0.4C9.84683 0.335999 10.2415 0.293332 10.8175 0.271999C11.3935 0.250666 11.9802 0.271999 12.5775 0.335999C13.1962 0.399999 13.7508 0.527999 14.2415 0.719999C14.7535 0.911999 15.0522 1.17867 15.1375 1.52C15.2015 1.69067 15.2655 1.84 15.3295 1.968C15.3935 2.07467 15.4468 2.192 15.4895 2.32C15.5322 2.42667 15.5535 2.55467 15.5535 2.704C15.5535 2.832 15.5215 3.00267 15.4575 3.216C15.3295 3.55733 15.1162 3.824 14.8175 4.016C14.5402 4.18667 14.2095 4.32533 13.8255 4.432C13.4628 4.51733 13.0788 4.58133 12.6735 4.624C12.2895 4.66667 11.9268 4.72 11.5855 4.784ZM25.3255 7.856C25.2188 7.94133 25.1015 8.016 24.9735 8.08C24.8668 8.144 24.7815 8.22933 24.7175 8.336C24.5895 8.37867 24.5042 8.44267 24.4615 8.528C24.4188 8.61333 24.3228 8.688 24.1735 8.752C24.2162 8.77333 24.2055 8.80533 24.1415 8.848C24.0988 8.89067 24.0348 8.944 23.9495 9.008C23.8855 9.05067 23.8108 9.104 23.7255 9.168C23.6615 9.21067 23.6188 9.264 23.5975 9.328C23.5335 9.37067 23.4482 9.41333 23.3415 9.456C23.2562 9.49867 23.1922 9.57333 23.1495 9.68C23.0855 9.72267 23.0428 9.78667 23.0215 9.872C23.0002 9.936 22.9682 9.98933 22.9255 10.032C21.2615 11.76 20.2695 13.7333 19.9495 15.952C19.7575 17.2533 19.5975 18.4907 19.4695 19.664C19.4268 19.7067 19.3948 19.6747 19.3735 19.568C19.3735 19.4613 19.3522 19.4293 19.3095 19.472C19.2668 19.536 19.2242 19.6107 19.1815 19.696C19.1388 19.76 19.0962 19.8027 19.0535 19.824C19.0535 19.8667 19.0322 19.8773 18.9895 19.856C18.9468 19.8133 18.9042 19.8133 18.8615 19.856C18.8402 19.8773 18.8295 19.8987 18.8295 19.92C18.8082 19.9413 18.7868 19.952 18.7655 19.952C18.7655 19.888 18.7548 19.8667 18.7335 19.888C18.7122 19.888 18.7015 19.8667 18.7015 19.824C18.6588 19.8453 18.6375 19.856 18.6375 19.856V19.888C18.6162 19.8453 18.6055 19.824 18.6055 19.824C18.6268 19.824 18.6375 19.8133 18.6375 19.792C18.6162 19.792 18.6055 19.8027 18.6055 19.824C18.6055 19.824 18.5948 19.824 18.5735 19.824H18.5415V19.632C18.4988 19.6747 18.4668 19.728 18.4455 19.792C18.4455 19.856 18.4242 19.888 18.3815 19.888L18.3175 19.952V19.888C18.3388 19.888 18.2855 19.952 18.1575 20.08V19.952C18.0722 19.9947 18.0295 20.0373 18.0295 20.08C18.0508 20.1227 18.0402 20.144 17.9975 20.144C17.9548 20.1653 17.9228 20.1867 17.9015 20.208C17.8802 20.2293 17.8482 20.2507 17.8055 20.272H17.7095C17.6668 20.3147 17.6348 20.3467 17.6135 20.368C17.5922 20.3893 17.5708 20.4213 17.5495 20.464C17.4855 20.4853 17.4108 20.5173 17.3255 20.56C17.2402 20.5813 17.1868 20.6133 17.1655 20.656C17.1228 20.592 17.0375 20.56 16.9095 20.56L16.7815 20.432C16.7388 20.3467 16.7068 20.304 16.6855 20.304C16.6642 20.2827 16.6428 20.24 16.6215 20.176C16.6215 20.1547 16.5682 20.0907 16.4615 19.984C16.4615 19.984 16.4402 19.92 16.3975 19.792C16.4402 18.832 16.4935 17.808 16.5575 16.72C16.6215 15.632 16.7175 14.5547 16.8455 13.488C16.9735 12.4213 17.1442 11.408 17.3575 10.448C17.5708 9.488 17.8482 8.66667 18.1895 7.984C18.2535 7.83467 18.3815 7.62133 18.5735 7.344C18.7868 7.06667 18.9682 6.928 19.1175 6.928C19.2242 6.84267 19.3522 6.75733 19.5015 6.672C19.6722 6.56533 19.8215 6.512 19.9495 6.512C20.2482 6.448 20.4828 6.43733 20.6535 6.48C20.8455 6.52267 20.9842 6.59733 21.0695 6.704C21.1762 6.81067 21.2402 6.93867 21.2615 7.088C21.3042 7.23733 21.3255 7.38667 21.3255 7.536C21.3255 7.64267 21.3042 7.792 21.2615 7.984C21.2402 8.176 21.2082 8.37867 21.1655 8.592C21.1228 8.80533 21.0802 9.008 21.0375 9.2C20.9948 9.392 20.9522 9.52 20.9095 9.584C20.8668 9.81867 20.8242 10.0213 20.7815 10.192C20.7602 10.3413 20.7388 10.5227 20.7175 10.736C20.9308 10.48 21.2188 10.16 21.5815 9.776C21.9442 9.392 22.3388 9.04 22.7655 8.72C23.1922 8.37867 23.6295 8.112 24.0775 7.92C24.5255 7.728 24.9415 7.70667 25.3255 7.856ZM25.6168 19.344C25.6168 19.2587 25.6061 19.2267 25.5848 19.248C25.5634 19.248 25.5314 19.28 25.4888 19.344C25.4674 19.408 25.4248 19.472 25.3608 19.536C25.3181 19.5787 25.2648 19.5787 25.2008 19.536C25.1368 19.5787 25.0728 19.6427 25.0088 19.728C24.9448 19.792 24.8594 19.8667 24.7528 19.952C24.7101 20.0587 24.6461 20.144 24.5608 20.208C24.4754 20.272 24.3901 20.3253 24.3048 20.368C24.2621 20.4747 24.2301 20.5707 24.2088 20.656C24.1874 20.7413 24.1448 20.8373 24.0807 20.944C23.6968 19.792 23.4621 18.5333 23.3768 17.168C23.2914 15.7813 23.3981 14.3627 23.6968 12.912C23.7608 12.6773 23.8248 12.3787 23.8888 12.016C23.9741 11.632 24.0701 11.2587 24.1768 10.896C24.3048 10.512 24.4541 10.1813 24.6248 9.904C24.8168 9.62667 25.0408 9.47733 25.2968 9.456C25.4674 9.328 25.6594 9.232 25.8728 9.168C26.1074 9.104 26.3314 9.08267 26.5448 9.104C26.7581 9.104 26.9501 9.15733 27.1208 9.264C27.3128 9.37067 27.4621 9.52 27.5688 9.712C27.6541 9.79733 27.6754 10.0107 27.6328 10.352C27.6114 10.6933 27.5474 11.0773 27.4408 11.504C27.3554 11.9307 27.2488 12.368 27.1208 12.816C27.0141 13.264 26.9288 13.6267 26.8648 13.904C26.6941 14.672 26.5874 15.2907 26.5448 15.76C26.5021 16.208 26.4594 16.6133 26.4168 16.976C26.3954 17.3173 26.3421 17.6587 26.2568 18C26.1714 18.3413 26.0114 18.7787 25.7768 19.312L25.6168 19.344ZM28.5608 5.776C28.5608 5.98933 28.5074 6.20267 28.4008 6.416C28.2941 6.608 28.1554 6.77867 27.9848 6.928C27.8354 7.07733 27.6541 7.19467 27.4408 7.28C27.2488 7.344 27.0568 7.35467 26.8648 7.312C26.6514 7.29067 26.4381 7.216 26.2248 7.088C26.0114 6.93867 25.8301 6.78933 25.6808 6.64C25.3821 6.448 25.2968 6.224 25.4248 5.968C25.5528 5.69067 25.7768 5.44533 26.0968 5.232C26.4168 4.99733 26.7474 4.82667 27.0888 4.72C27.4514 4.592 27.7074 4.57067 27.8568 4.656C28.0701 4.784 28.2301 4.96533 28.3368 5.2C28.4434 5.41333 28.5181 5.60533 28.5608 5.776ZM32.1615 16.912C32.8015 16.848 33.2708 16.8053 33.5695 16.784C33.8895 16.7627 34.1775 16.7413 34.4335 16.72C34.6895 16.6773 34.9668 16.6347 35.2655 16.592C35.5855 16.5493 36.0655 16.4853 36.7055 16.4C36.6202 16.464 36.5348 16.5173 36.4495 16.56C36.2788 16.6453 36.1722 16.688 36.1295 16.688H36.0655C36.0655 16.7307 36.0335 16.752 35.9695 16.752C35.9055 16.7307 35.8735 16.752 35.8735 16.816C35.8735 16.8587 35.9268 16.88 36.0335 16.88C36.1402 16.8587 36.2148 16.8693 36.2575 16.912C36.0228 16.976 35.9055 17.0293 35.9055 17.072C35.9055 17.1147 35.9588 17.1467 36.0655 17.168C36.1722 17.168 36.2362 17.1787 36.2575 17.2C36.2148 17.3493 36.1828 17.4347 36.1615 17.456H36.2255C36.2042 17.456 36.1935 17.4667 36.1935 17.488C36.1935 17.488 36.1828 17.488 36.1615 17.488C36.1402 17.5093 36.1295 17.52 36.1295 17.52C36.1082 17.52 36.0975 17.5093 36.0975 17.488C35.5002 17.6587 34.9028 17.7973 34.3055 17.904C33.7295 18.0107 33.1962 18.1173 32.7055 18.224C32.7268 18.2453 32.7588 18.256 32.8015 18.256C33.4415 18.256 34.0495 18.192 34.6255 18.064C35.2015 17.936 35.7348 17.8613 36.2255 17.84C36.2255 17.9467 36.1935 18 36.1295 18C36.0868 18 36.0548 18 36.0335 18C36.0122 17.9787 35.9908 17.968 35.9695 17.968C35.9695 17.968 35.8095 18.0107 35.4895 18.096C35.1908 18.1813 34.8175 18.2773 34.3695 18.384C33.9215 18.4693 33.4415 18.5547 32.9295 18.64C32.4388 18.704 32.0122 18.736 31.6495 18.736C31.5002 18.736 31.3722 18.7573 31.2655 18.8C31.1802 18.8213 31.0842 18.864 30.9775 18.928C30.8922 18.9707 30.7855 19.0133 30.6575 19.056C30.5295 19.0773 30.3695 19.088 30.1775 19.088C29.6442 19.088 29.1642 18.9173 28.7375 18.576C28.3108 18.2133 28.0975 17.808 28.0975 17.36C28.0975 17.04 28.3108 16.5387 28.7375 15.856C29.1855 15.1733 29.7082 14.448 30.3055 13.68C30.9242 12.912 31.5642 12.1653 32.2255 11.44C32.8868 10.6933 33.4308 10.1067 33.8575 9.68C33.7722 9.63733 33.6122 9.616 33.3775 9.616C32.8442 9.616 32.3748 9.648 31.9695 9.712C31.5855 9.776 31.2335 9.84 30.9135 9.904C30.6148 9.968 30.3375 10.032 30.0815 10.096C29.8255 10.16 29.5802 10.192 29.3455 10.192C29.0468 10.192 28.8975 10.096 28.8975 9.904C28.8975 9.54133 29.3028 9.168 30.1135 8.784C30.9242 8.4 32.0655 8.208 33.5375 8.208C33.9855 8.208 34.4122 8.22933 34.8175 8.272C35.2228 8.29333 35.5855 8.368 35.9055 8.496C36.2255 8.60267 36.4815 8.77333 36.6735 9.008C36.8655 9.22133 36.9615 9.52 36.9615 9.904C36.9615 10.2667 36.8442 10.576 36.6095 10.832C36.0975 11.4507 35.6282 12.016 35.2015 12.528C34.7962 13.04 34.4122 13.5413 34.0495 14.032C33.6868 14.5013 33.3242 14.9707 32.9615 15.44C32.6202 15.9093 32.2575 16.4 31.8735 16.912H32.1615ZM49.1073 14.672C49.0646 14.736 49.0006 14.864 48.9153 15.056C48.8299 15.2267 48.7553 15.312 48.6913 15.312C48.6913 15.2693 48.6593 15.2907 48.5953 15.376C48.5313 15.44 48.4993 15.504 48.4993 15.568C48.4353 15.6747 48.3926 15.76 48.3713 15.824C48.3499 15.8667 48.3179 15.92 48.2753 15.984C48.2966 15.984 48.2859 16.016 48.2433 16.08C48.2006 16.144 48.1686 16.1653 48.1473 16.144C48.1259 16.1867 48.0939 16.24 48.0513 16.304C48.0086 16.368 47.9659 16.4213 47.9233 16.464C47.7313 16.6773 47.5606 16.88 47.4113 17.072C47.2833 17.2427 47.1553 17.392 47.0273 17.52C46.9206 17.648 46.8459 17.7227 46.8033 17.744C46.7393 17.7867 46.6753 17.8187 46.6113 17.84C46.5473 17.8613 46.4833 17.9253 46.4193 18.032C46.2486 18.224 46.0993 18.3413 45.9713 18.384C45.8433 18.4267 45.6619 18.5013 45.4273 18.608C45.1499 18.672 44.9793 18.704 44.9153 18.704C44.8513 18.6827 44.7979 18.672 44.7552 18.672C44.3286 18.8213 43.9233 18.736 43.5393 18.416C43.1766 18.096 42.9206 17.744 42.7713 17.36C42.6646 17.104 42.5793 16.7733 42.5153 16.368C42.4726 15.9627 42.4406 15.536 42.4193 15.088C42.3979 14.6187 42.3873 14.16 42.3873 13.712C42.4086 13.2427 42.4299 12.816 42.4513 12.432C42.4086 12.4747 42.3766 12.5387 42.3553 12.624C42.3339 12.688 42.3233 12.7307 42.3233 12.752C42.1953 13.1573 42.0139 13.6267 41.7793 14.16C41.5446 14.672 41.2886 15.1733 41.0113 15.664C40.7553 16.1333 40.5099 16.528 40.2753 16.848C40.0406 17.168 39.8699 17.3173 39.7633 17.296C39.6566 17.4027 39.5713 17.5093 39.5073 17.616C39.4646 17.7013 39.3899 17.776 39.2833 17.84C38.8353 18.0533 38.3873 18 37.9393 17.68C37.7046 17.5093 37.5339 17.3067 37.4273 17.072C37.3419 16.8373 37.2993 16.5813 37.2993 16.304C37.3633 15.3013 37.5659 14.3627 37.9073 13.488C38.2699 12.592 38.6646 11.8027 39.0913 11.12C39.4113 10.6293 39.7739 10.1493 40.1793 9.68C40.6059 9.21067 41.1286 8.82667 41.7473 8.528C42.0886 8.35733 42.5046 8.32533 42.9953 8.432C43.4859 8.51733 43.9019 8.656 44.2433 8.848C44.3926 8.93333 44.4566 9.008 44.4353 9.072C44.4139 9.136 44.4033 9.17867 44.4033 9.2C44.3179 9.328 44.2113 9.37067 44.0833 9.328C44.0833 9.43467 44.1046 9.49867 44.1473 9.52C44.1899 9.52 44.2113 9.56267 44.2113 9.648C44.1899 9.75467 44.1686 9.82933 44.1473 9.872C44.1473 9.91467 44.1473 9.98933 44.1473 10.096C44.1473 10.1387 44.1473 10.1813 44.1473 10.224C44.1473 10.2453 44.1366 10.352 44.1153 10.544C44.1153 11.056 44.1153 11.6853 44.1153 12.432C44.1153 13.1573 44.1259 13.8827 44.1473 14.608C44.1686 15.312 44.2006 15.952 44.2433 16.528C44.3073 17.104 44.3819 17.488 44.4673 17.68C44.5739 17.7653 44.7659 17.7013 45.0433 17.488C45.3206 17.2533 45.6299 16.944 45.9713 16.56C46.3126 16.176 46.6753 15.7387 47.0593 15.248C47.4646 14.7573 47.8379 14.288 48.1793 13.84C48.5206 13.3707 48.8193 12.944 49.0753 12.56C49.3526 12.176 49.5446 11.8987 49.6513 11.728C49.7153 11.6427 49.7793 11.5467 49.8433 11.44C49.9286 11.312 50.0033 11.216 50.0673 11.152C50.1526 11.088 50.2166 11.0667 50.2593 11.088C50.3233 11.088 50.3766 11.1627 50.4193 11.312C50.4406 11.376 50.4726 11.4293 50.5153 11.472C50.5579 11.5147 50.5899 11.5893 50.6113 11.696C50.6753 12.0373 50.6326 12.3787 50.4833 12.72L50.3553 13.008C50.2273 13.0507 50.1739 13.104 50.1953 13.168C50.2379 13.2107 50.1953 13.296 50.0673 13.424C50.0246 13.5307 49.9606 13.6267 49.8753 13.712C49.8113 13.776 49.7579 13.8507 49.7153 13.936V13.872C49.7579 13.7867 49.8006 13.7227 49.8433 13.68C49.8006 13.68 49.8006 13.6373 49.8433 13.552C49.8219 13.5947 49.8006 13.6267 49.7793 13.648C49.7579 13.648 49.7366 13.6587 49.7153 13.68C49.7153 13.7013 49.7046 13.7333 49.6833 13.776C49.6619 13.7973 49.6513 13.7867 49.6513 13.744L49.3633 14.16C49.2353 14.288 49.1499 14.3947 49.1073 14.48C49.0859 14.544 49.0006 14.6613 48.8513 14.832L48.8833 14.864C48.9259 14.8213 48.9579 14.768 48.9793 14.704C49.0219 14.64 49.0753 14.608 49.1393 14.608V14.64L49.1073 14.672ZM39.0913 16.752C39.1339 16.7947 39.1659 16.784 39.1873 16.72C39.7846 15.6107 40.3393 14.576 40.8513 13.616C41.3633 12.656 41.9286 11.6107 42.5473 10.48C42.5686 10.352 42.6433 10.192 42.7713 10C42.9206 9.808 43.0273 9.69067 43.0913 9.648C42.9206 9.75467 42.7286 9.91467 42.5153 10.128C42.3019 10.3413 42.0886 10.5867 41.8753 10.864C41.6833 11.1413 41.4806 11.44 41.2673 11.76C41.0753 12.08 40.9046 12.4 40.7552 12.72C40.4353 13.3387 40.1153 14.0213 39.7953 14.768C39.4966 15.5147 39.2619 16.176 39.0913 16.752ZM48.2433 14.896C48.2006 14.8747 48.2113 14.8427 48.2753 14.8C48.3606 14.736 48.4033 14.6933 48.4033 14.672C48.4246 14.6507 48.4353 14.608 48.4353 14.544C48.4353 14.5227 48.4246 14.512 48.4033 14.512L48.3393 14.576C48.2753 14.64 48.2326 14.6933 48.2113 14.736C48.2753 14.672 48.2966 14.6613 48.2753 14.704C48.2539 14.7253 48.2219 14.7787 48.1793 14.864C48.2006 14.8213 48.1579 14.8853 48.0513 15.056C47.9446 15.2053 47.8593 15.3333 47.7953 15.44H47.8273C47.8059 15.4613 47.7953 15.472 47.7953 15.472C47.8379 15.472 47.8913 15.4293 47.9553 15.344C48.0406 15.2373 48.0726 15.1627 48.0513 15.12C48.0513 15.12 48.0833 15.12 48.1473 15.12C48.1899 15.0347 48.2113 14.992 48.2113 14.992C48.2326 14.9707 48.2433 14.9387 48.2433 14.896ZM48.2433 15.376C48.3073 15.3333 48.3499 15.2907 48.3713 15.248C48.3926 15.2053 48.4246 15.1627 48.4673 15.12C48.5099 15.0133 48.5313 14.9707 48.5313 14.992C48.5313 14.992 48.5099 14.9707 48.4673 14.928C48.4246 14.9707 48.3713 15.0347 48.3073 15.12C48.2433 15.184 48.1899 15.2693 48.1473 15.376C48.1259 15.3333 48.1153 15.3227 48.1153 15.344C48.1153 15.3653 48.1046 15.376 48.0833 15.376H48.0513V15.408L48.1153 15.472V15.504C48.1366 15.504 48.1579 15.472 48.1793 15.408C48.2219 15.3227 48.2539 15.28 48.2753 15.28L48.2433 15.376ZM41.4273 13.328V13.296L41.3953 13.264C41.3739 13.2853 41.3633 13.296 41.3633 13.296L41.4913 13.104V13.04C41.4486 13.0827 41.4273 13.1147 41.4273 13.136C41.4273 13.1147 41.4059 13.104 41.3633 13.104C41.3633 13.0613 41.3526 13.0827 41.3313 13.168C41.3099 13.232 41.2779 13.296 41.2352 13.36C41.2352 13.36 41.2779 13.3387 41.3633 13.296L41.2993 13.392L41.0113 13.712C41.0539 13.7333 41.0753 13.7333 41.0753 13.712C41.0966 13.6693 41.1393 13.6587 41.2033 13.68L41.4273 13.328ZM48.0513 16.048C48.1153 15.9413 48.1793 15.8773 48.2433 15.856C48.2006 15.8133 48.2006 15.7813 48.2433 15.76C48.2859 15.7387 48.2859 15.7067 48.2433 15.664L48.2113 15.696C48.2539 15.632 48.2753 15.6 48.2753 15.6C48.2966 15.5787 48.3073 15.5253 48.3073 15.44C48.2646 15.5467 48.2113 15.632 48.1473 15.696C48.0833 15.76 48.0299 15.8133 47.9873 15.856C48.0299 15.8773 48.0299 15.9093 47.9873 15.952C47.9446 15.9733 47.9659 16.0053 48.0513 16.048C47.9873 16.048 47.9553 16.0693 47.9553 16.112C47.9126 16.112 47.9126 16.144 47.9553 16.208L48.0513 16.048ZM49.6193 13.904V13.936H49.7153C49.6513 14 49.6193 14.0533 49.6193 14.096C49.6193 14.1387 49.5766 14.1707 49.4913 14.192C49.5339 14.192 49.5339 14.2133 49.4913 14.256C49.4486 14.2773 49.4273 14.2773 49.4273 14.256C49.4486 14.2987 49.4486 14.3307 49.4273 14.352C49.4059 14.3733 49.3846 14.3733 49.3633 14.352C49.3633 14.3307 49.3739 14.288 49.3953 14.224C49.4379 14.16 49.5126 14.0533 49.6193 13.904ZM48.2433 14.544C48.2859 14.5867 48.3286 14.544 48.3713 14.416C48.4353 14.288 48.4779 14.2133 48.4993 14.192C48.4566 14.1707 48.3926 14.2133 48.3073 14.32C48.2433 14.4267 48.2219 14.5013 48.2433 14.544ZM48.5953 14C48.5953 14.0213 48.6059 14.0427 48.6273 14.064C48.6486 14.0853 48.6486 14.1067 48.6273 14.128C48.6273 14.1493 48.6913 14.1067 48.8193 14C48.9473 13.872 49.0006 13.8187 48.9793 13.84C48.9579 13.8187 48.9366 13.808 48.9153 13.808C48.8513 13.808 48.8193 13.8187 48.8193 13.84C48.7553 13.904 48.7233 13.9573 48.7233 14H48.5953ZM41.7473 12.464C41.7899 12.4 41.8113 12.3467 41.8113 12.304C41.8326 12.24 41.8753 12.176 41.9393 12.112V12.048C41.9179 12.0693 41.9073 12.0907 41.9073 12.112C41.8859 12.1333 41.8646 12.144 41.8433 12.144C41.8219 12.144 41.8113 12.1547 41.8113 12.176C41.8113 12.1973 41.8006 12.1973 41.7793 12.176C41.7579 12.2187 41.7473 12.2507 41.7473 12.272C41.7686 12.272 41.7579 12.3147 41.7153 12.4V12.432C41.7153 12.4533 41.7259 12.464 41.7473 12.464ZM41.6193 13.744C41.6833 13.7867 41.7259 13.776 41.7473 13.712C41.7899 13.6267 41.8219 13.5733 41.8433 13.552C41.8006 13.5733 41.7579 13.6053 41.7153 13.648C41.6939 13.6907 41.6619 13.7227 41.6193 13.744ZM47.9233 15.696C47.9873 15.7173 48.0406 15.6853 48.0833 15.6L48.0193 15.536C47.9766 15.5787 47.9553 15.6107 47.9553 15.632C47.9553 15.6533 47.9446 15.6747 47.9233 15.696ZM41.6833 12.784C41.7046 12.7627 41.7259 12.752 41.7473 12.752C41.7899 12.752 41.8219 12.7307 41.8433 12.688L41.7793 12.656C41.8006 12.656 41.8219 12.6453 41.8433 12.624L41.9073 12.56C41.8219 12.5813 41.7579 12.6347 41.7153 12.72C41.7153 12.7413 41.7046 12.7627 41.6833 12.784ZM41.5553 13.712C41.5766 13.6693 41.6086 13.6373 41.6513 13.616C41.6939 13.5733 41.7259 13.5307 41.7473 13.488L41.5233 13.68L41.5553 13.712ZM41.4913 13.616L41.5233 13.584C41.5659 13.5413 41.5979 13.52 41.6193 13.52C41.6193 13.4987 41.6086 13.488 41.5873 13.488C41.5873 13.4667 41.5873 13.4453 41.5873 13.424C41.6299 13.36 41.6299 13.36 41.5873 13.424C41.5446 13.488 41.5019 13.552 41.4593 13.616H41.4913ZM48.5953 15.248C48.6166 15.2053 48.6273 15.184 48.6273 15.184C48.6699 15.1413 48.7019 15.0987 48.7233 15.056C48.7659 15.0133 48.7979 14.9707 48.8193 14.928L48.6273 15.12C48.6273 15.1413 48.6166 15.1627 48.5953 15.184C48.5953 15.2053 48.5953 15.2267 48.5953 15.248ZM42.2913 11.504C42.3339 11.5467 42.3979 11.4827 42.4833 11.312L42.4513 11.344C42.4086 11.3867 42.3873 11.3973 42.3873 11.376L42.2913 11.504ZM41.0753 14.192C41.0966 14.192 41.1179 14.1707 41.1393 14.128C41.2033 14.064 41.2139 14.032 41.1713 14.032C41.1499 14.032 41.1286 14.0427 41.1073 14.064C41.1073 14.128 41.0966 14.1707 41.0753 14.192ZM41.2033 13.296C41.1393 13.36 41.1073 13.392 41.1073 13.392V13.456C41.1073 13.456 41.1393 13.424 41.2033 13.36C41.2033 13.3173 41.2033 13.296 41.2033 13.296ZM41.2673 13.744C41.3099 13.7227 41.3313 13.712 41.3313 13.712V13.68C41.3953 13.616 41.3953 13.584 41.3313 13.584C41.3313 13.6267 41.3099 13.68 41.2673 13.744ZM47.8593 15.76C47.9019 15.76 47.9233 15.76 47.9233 15.76V15.696L47.8593 15.76ZM40.9473 13.808C40.9686 13.808 40.9899 13.7973 41.0113 13.776V13.744C40.9686 13.7867 40.9473 13.808 40.9473 13.808ZM49.8753 13.616C49.8539 13.6373 49.8433 13.648 49.8433 13.648V13.68C49.8646 13.6587 49.8753 13.6373 49.8753 13.616ZM56.8225 19.472C56.4598 19.472 56.1505 19.4293 55.8945 19.344C55.6385 19.2587 55.3612 19.056 55.0625 18.736C54.8918 18.5653 54.7852 18.288 54.7425 17.904C54.7212 17.4987 54.7212 17.0507 54.7425 16.56C54.7852 16.0693 54.8385 15.568 54.9025 15.056C54.9665 14.5227 55.0198 14.0427 55.0625 13.616C55.1265 13.168 55.1585 12.7947 55.1585 12.496C55.1585 12.1973 55.1052 12.0373 54.9985 12.016C54.5505 12.528 54.1558 13.0293 53.8145 13.52C53.4945 14.0107 53.1958 14.512 52.9185 15.024C52.6412 15.5147 52.3745 16.0267 52.1185 16.56C51.8625 17.072 51.5958 17.6053 51.3185 18.16V18.256C51.1478 18.704 50.9238 18.9813 50.6465 19.088C50.3692 19.1733 50.0598 19.0453 49.7185 18.704C49.5478 18.64 49.3878 18.5973 49.2385 18.576C49.1105 18.5547 48.9932 18.5333 48.8865 18.512C48.7798 18.4907 48.6838 18.4587 48.5985 18.416C48.5345 18.352 48.4812 18.2453 48.4385 18.096C48.4385 17.584 48.4705 16.9867 48.5345 16.304C48.5985 15.6213 48.6732 14.928 48.7585 14.224C48.8652 13.4987 48.9825 12.8053 49.1105 12.144C49.2385 11.4613 49.3558 10.8747 49.4625 10.384C49.5265 10.1493 49.6225 9.97867 49.7505 9.872C49.8785 9.76533 50.0172 9.69067 50.1665 9.648C50.3372 9.60533 50.5185 9.57333 50.7105 9.552C50.9025 9.53067 51.0838 9.488 51.2545 9.424C51.4038 9.296 51.5638 9.232 51.7345 9.232C51.9052 9.232 52.0545 9.27467 52.1825 9.36C52.3318 9.44533 52.4385 9.56267 52.5025 9.712C52.5878 9.86133 52.6198 10.0107 52.5985 10.16C52.5558 10.3947 52.4918 10.6827 52.4065 11.024C52.3425 11.3653 52.2678 11.728 52.1825 12.112C52.1185 12.496 52.0438 12.8693 51.9585 13.232C51.8945 13.5947 51.8305 13.904 51.7665 14.16C51.8945 13.968 52.0652 13.6907 52.2785 13.328C52.4918 12.9653 52.7372 12.592 53.0145 12.208C53.2918 11.824 53.6012 11.4613 53.9425 11.12C54.2838 10.7787 54.6465 10.5333 55.0305 10.384C55.2225 10.2987 55.4785 10.256 55.7985 10.256C56.1185 10.256 56.4385 10.288 56.7585 10.352C57.0998 10.416 57.3985 10.5227 57.6545 10.672C57.9318 10.8 58.1238 10.9707 58.2305 11.184C58.4225 11.5893 58.5078 12.1227 58.4865 12.784C58.4652 13.424 58.4118 14.064 58.3265 14.704C58.2625 15.344 58.1878 15.9307 58.1025 16.464C58.0385 16.976 58.0492 17.3173 58.1345 17.488C58.1772 17.5947 58.3478 17.52 58.6465 17.264C58.9665 16.9867 59.3505 16.592 59.7985 16.08C60.2465 15.568 60.7372 14.9707 61.2705 14.288C61.8252 13.584 62.3692 12.8693 62.9025 12.144C63.0305 11.952 63.1478 11.888 63.2545 11.952C63.3825 11.9947 63.4892 12.0907 63.5745 12.24C63.6598 12.3893 63.7132 12.56 63.7345 12.752C63.7772 12.9227 63.7772 13.0507 63.7345 13.136C63.5212 13.4987 63.2545 13.9147 62.9345 14.384C62.6358 14.832 62.2945 15.2907 61.9105 15.76C61.5265 16.2293 61.1105 16.688 60.6625 17.136C60.2358 17.584 59.7985 17.9893 59.3505 18.352C58.9238 18.6933 58.4865 18.9707 58.0385 19.184C57.6118 19.376 57.2065 19.472 56.8225 19.472ZM73.1073 14.672C73.0646 14.736 73.0006 14.864 72.9153 15.056C72.8299 15.2267 72.7553 15.312 72.6913 15.312C72.6913 15.2693 72.6593 15.2907 72.5953 15.376C72.5313 15.44 72.4993 15.504 72.4993 15.568C72.4353 15.6747 72.3926 15.76 72.3713 15.824C72.3499 15.8667 72.3179 15.92 72.2753 15.984C72.2966 15.984 72.2859 16.016 72.2433 16.08C72.2006 16.144 72.1686 16.1653 72.1473 16.144C72.1259 16.1867 72.0939 16.24 72.0513 16.304C72.0086 16.368 71.9659 16.4213 71.9233 16.464C71.7313 16.6773 71.5606 16.88 71.4113 17.072C71.2833 17.2427 71.1553 17.392 71.0273 17.52C70.9206 17.648 70.8459 17.7227 70.8033 17.744C70.7393 17.7867 70.6753 17.8187 70.6113 17.84C70.5473 17.8613 70.4833 17.9253 70.4193 18.032C70.2486 18.224 70.0993 18.3413 69.9713 18.384C69.8433 18.4267 69.6619 18.5013 69.4273 18.608C69.1499 18.672 68.9793 18.704 68.9153 18.704C68.8513 18.6827 68.7979 18.672 68.7552 18.672C68.3286 18.8213 67.9233 18.736 67.5393 18.416C67.1766 18.096 66.9206 17.744 66.7713 17.36C66.6646 17.104 66.5793 16.7733 66.5153 16.368C66.4726 15.9627 66.4406 15.536 66.4193 15.088C66.3979 14.6187 66.3873 14.16 66.3873 13.712C66.4086 13.2427 66.4299 12.816 66.4513 12.432C66.4086 12.4747 66.3766 12.5387 66.3553 12.624C66.3339 12.688 66.3233 12.7307 66.3233 12.752C66.1953 13.1573 66.0139 13.6267 65.7793 14.16C65.5446 14.672 65.2886 15.1733 65.0113 15.664C64.7553 16.1333 64.5099 16.528 64.2753 16.848C64.0406 17.168 63.8699 17.3173 63.7633 17.296C63.6566 17.4027 63.5713 17.5093 63.5073 17.616C63.4646 17.7013 63.3899 17.776 63.2833 17.84C62.8353 18.0533 62.3873 18 61.9393 17.68C61.7046 17.5093 61.5339 17.3067 61.4273 17.072C61.3419 16.8373 61.2993 16.5813 61.2993 16.304C61.3633 15.3013 61.5659 14.3627 61.9073 13.488C62.2699 12.592 62.6646 11.8027 63.0913 11.12C63.4113 10.6293 63.7739 10.1493 64.1793 9.68C64.6059 9.21067 65.1286 8.82667 65.7473 8.528C66.0886 8.35733 66.5046 8.32533 66.9953 8.432C67.4859 8.51733 67.9019 8.656 68.2433 8.848C68.3926 8.93333 68.4566 9.008 68.4353 9.072C68.4139 9.136 68.4033 9.17867 68.4033 9.2C68.3179 9.328 68.2113 9.37067 68.0833 9.328C68.0833 9.43467 68.1046 9.49867 68.1473 9.52C68.1899 9.52 68.2113 9.56267 68.2113 9.648C68.1899 9.75467 68.1686 9.82933 68.1473 9.872C68.1473 9.91467 68.1473 9.98933 68.1473 10.096C68.1473 10.1387 68.1473 10.1813 68.1473 10.224C68.1473 10.2453 68.1366 10.352 68.1153 10.544C68.1153 11.056 68.1153 11.6853 68.1153 12.432C68.1153 13.1573 68.1259 13.8827 68.1473 14.608C68.1686 15.312 68.2006 15.952 68.2433 16.528C68.3073 17.104 68.3819 17.488 68.4673 17.68C68.5739 17.7653 68.7659 17.7013 69.0433 17.488C69.3206 17.2533 69.6299 16.944 69.9713 16.56C70.3126 16.176 70.6753 15.7387 71.0593 15.248C71.4646 14.7573 71.8379 14.288 72.1793 13.84C72.5206 13.3707 72.8193 12.944 73.0753 12.56C73.3526 12.176 73.5446 11.8987 73.6513 11.728C73.7153 11.6427 73.7793 11.5467 73.8433 11.44C73.9286 11.312 74.0033 11.216 74.0673 11.152C74.1526 11.088 74.2166 11.0667 74.2593 11.088C74.3233 11.088 74.3766 11.1627 74.4193 11.312C74.4406 11.376 74.4726 11.4293 74.5153 11.472C74.5579 11.5147 74.5899 11.5893 74.6113 11.696C74.6753 12.0373 74.6326 12.3787 74.4833 12.72L74.3553 13.008C74.2273 13.0507 74.1739 13.104 74.1953 13.168C74.2379 13.2107 74.1953 13.296 74.0673 13.424C74.0246 13.5307 73.9606 13.6267 73.8753 13.712C73.8113 13.776 73.7579 13.8507 73.7153 13.936V13.872C73.7579 13.7867 73.8006 13.7227 73.8433 13.68C73.8006 13.68 73.8006 13.6373 73.8433 13.552C73.8219 13.5947 73.8006 13.6267 73.7793 13.648C73.7579 13.648 73.7366 13.6587 73.7153 13.68C73.7153 13.7013 73.7046 13.7333 73.6833 13.776C73.6619 13.7973 73.6513 13.7867 73.6513 13.744L73.3633 14.16C73.2353 14.288 73.1499 14.3947 73.1073 14.48C73.0859 14.544 73.0006 14.6613 72.8513 14.832L72.8833 14.864C72.9259 14.8213 72.9579 14.768 72.9793 14.704C73.0219 14.64 73.0753 14.608 73.1393 14.608V14.64L73.1073 14.672ZM63.0913 16.752C63.1339 16.7947 63.1659 16.784 63.1873 16.72C63.7846 15.6107 64.3393 14.576 64.8513 13.616C65.3633 12.656 65.9286 11.6107 66.5473 10.48C66.5686 10.352 66.6433 10.192 66.7713 10C66.9206 9.808 67.0273 9.69067 67.0913 9.648C66.9206 9.75467 66.7286 9.91467 66.5153 10.128C66.3019 10.3413 66.0886 10.5867 65.8753 10.864C65.6833 11.1413 65.4806 11.44 65.2673 11.76C65.0753 12.08 64.9046 12.4 64.7552 12.72C64.4353 13.3387 64.1153 14.0213 63.7953 14.768C63.4966 15.5147 63.2619 16.176 63.0913 16.752ZM72.2433 14.896C72.2006 14.8747 72.2113 14.8427 72.2753 14.8C72.3606 14.736 72.4033 14.6933 72.4033 14.672C72.4246 14.6507 72.4353 14.608 72.4353 14.544C72.4353 14.5227 72.4246 14.512 72.4033 14.512L72.3393 14.576C72.2753 14.64 72.2326 14.6933 72.2113 14.736C72.2753 14.672 72.2966 14.6613 72.2753 14.704C72.2539 14.7253 72.2219 14.7787 72.1793 14.864C72.2006 14.8213 72.1579 14.8853 72.0513 15.056C71.9446 15.2053 71.8593 15.3333 71.7953 15.44H71.8273C71.8059 15.4613 71.7953 15.472 71.7953 15.472C71.8379 15.472 71.8913 15.4293 71.9553 15.344C72.0406 15.2373 72.0726 15.1627 72.0513 15.12C72.0513 15.12 72.0833 15.12 72.1473 15.12C72.1899 15.0347 72.2113 14.992 72.2113 14.992C72.2326 14.9707 72.2433 14.9387 72.2433 14.896ZM72.2433 15.376C72.3073 15.3333 72.3499 15.2907 72.3713 15.248C72.3926 15.2053 72.4246 15.1627 72.4673 15.12C72.5099 15.0133 72.5313 14.9707 72.5313 14.992C72.5313 14.992 72.5099 14.9707 72.4673 14.928C72.4246 14.9707 72.3713 15.0347 72.3073 15.12C72.2433 15.184 72.1899 15.2693 72.1473 15.376C72.1259 15.3333 72.1153 15.3227 72.1153 15.344C72.1153 15.3653 72.1046 15.376 72.0833 15.376H72.0513V15.408L72.1153 15.472V15.504C72.1366 15.504 72.1579 15.472 72.1793 15.408C72.2219 15.3227 72.2539 15.28 72.2753 15.28L72.2433 15.376ZM65.4273 13.328V13.296L65.3953 13.264C65.3739 13.2853 65.3633 13.296 65.3633 13.296L65.4913 13.104V13.04C65.4486 13.0827 65.4273 13.1147 65.4273 13.136C65.4273 13.1147 65.4059 13.104 65.3633 13.104C65.3633 13.0613 65.3526 13.0827 65.3313 13.168C65.3099 13.232 65.2779 13.296 65.2352 13.36C65.2352 13.36 65.2779 13.3387 65.3633 13.296L65.2993 13.392L65.0113 13.712C65.0539 13.7333 65.0753 13.7333 65.0753 13.712C65.0966 13.6693 65.1393 13.6587 65.2033 13.68L65.4273 13.328ZM72.0513 16.048C72.1153 15.9413 72.1793 15.8773 72.2433 15.856C72.2006 15.8133 72.2006 15.7813 72.2433 15.76C72.2859 15.7387 72.2859 15.7067 72.2433 15.664L72.2113 15.696C72.2539 15.632 72.2753 15.6 72.2753 15.6C72.2966 15.5787 72.3073 15.5253 72.3073 15.44C72.2646 15.5467 72.2113 15.632 72.1473 15.696C72.0833 15.76 72.0299 15.8133 71.9873 15.856C72.0299 15.8773 72.0299 15.9093 71.9873 15.952C71.9446 15.9733 71.9659 16.0053 72.0513 16.048C71.9873 16.048 71.9553 16.0693 71.9553 16.112C71.9126 16.112 71.9126 16.144 71.9553 16.208L72.0513 16.048ZM73.6193 13.904V13.936H73.7153C73.6513 14 73.6193 14.0533 73.6193 14.096C73.6193 14.1387 73.5766 14.1707 73.4913 14.192C73.5339 14.192 73.5339 14.2133 73.4913 14.256C73.4486 14.2773 73.4273 14.2773 73.4273 14.256C73.4486 14.2987 73.4486 14.3307 73.4273 14.352C73.4059 14.3733 73.3846 14.3733 73.3633 14.352C73.3633 14.3307 73.3739 14.288 73.3953 14.224C73.4379 14.16 73.5126 14.0533 73.6193 13.904ZM72.2433 14.544C72.2859 14.5867 72.3286 14.544 72.3713 14.416C72.4353 14.288 72.4779 14.2133 72.4993 14.192C72.4566 14.1707 72.3926 14.2133 72.3073 14.32C72.2433 14.4267 72.2219 14.5013 72.2433 14.544ZM72.5953 14C72.5953 14.0213 72.6059 14.0427 72.6273 14.064C72.6486 14.0853 72.6486 14.1067 72.6273 14.128C72.6273 14.1493 72.6913 14.1067 72.8193 14C72.9473 13.872 73.0006 13.8187 72.9793 13.84C72.9579 13.8187 72.9366 13.808 72.9153 13.808C72.8513 13.808 72.8193 13.8187 72.8193 13.84C72.7553 13.904 72.7233 13.9573 72.7233 14H72.5953ZM65.7473 12.464C65.7899 12.4 65.8113 12.3467 65.8113 12.304C65.8326 12.24 65.8753 12.176 65.9393 12.112V12.048C65.9179 12.0693 65.9073 12.0907 65.9073 12.112C65.8859 12.1333 65.8646 12.144 65.8433 12.144C65.8219 12.144 65.8113 12.1547 65.8113 12.176C65.8113 12.1973 65.8006 12.1973 65.7793 12.176C65.7579 12.2187 65.7473 12.2507 65.7473 12.272C65.7686 12.272 65.7579 12.3147 65.7153 12.4V12.432C65.7153 12.4533 65.7259 12.464 65.7473 12.464ZM65.6193 13.744C65.6833 13.7867 65.7259 13.776 65.7473 13.712C65.7899 13.6267 65.8219 13.5733 65.8433 13.552C65.8006 13.5733 65.7579 13.6053 65.7153 13.648C65.6939 13.6907 65.6619 13.7227 65.6193 13.744ZM71.9233 15.696C71.9873 15.7173 72.0406 15.6853 72.0833 15.6L72.0193 15.536C71.9766 15.5787 71.9553 15.6107 71.9553 15.632C71.9553 15.6533 71.9446 15.6747 71.9233 15.696ZM65.6833 12.784C65.7046 12.7627 65.7259 12.752 65.7473 12.752C65.7899 12.752 65.8219 12.7307 65.8433 12.688L65.7793 12.656C65.8006 12.656 65.8219 12.6453 65.8433 12.624L65.9073 12.56C65.8219 12.5813 65.7579 12.6347 65.7153 12.72C65.7153 12.7413 65.7046 12.7627 65.6833 12.784ZM65.5553 13.712C65.5766 13.6693 65.6086 13.6373 65.6513 13.616C65.6939 13.5733 65.7259 13.5307 65.7473 13.488L65.5233 13.68L65.5553 13.712ZM65.4913 13.616L65.5233 13.584C65.5659 13.5413 65.5979 13.52 65.6193 13.52C65.6193 13.4987 65.6086 13.488 65.5873 13.488C65.5873 13.4667 65.5873 13.4453 65.5873 13.424C65.6299 13.36 65.6299 13.36 65.5873 13.424C65.5446 13.488 65.5019 13.552 65.4593 13.616H65.4913ZM72.5953 15.248C72.6166 15.2053 72.6273 15.184 72.6273 15.184C72.6699 15.1413 72.7019 15.0987 72.7233 15.056C72.7659 15.0133 72.7979 14.9707 72.8193 14.928L72.6273 15.12C72.6273 15.1413 72.6166 15.1627 72.5953 15.184C72.5953 15.2053 72.5953 15.2267 72.5953 15.248ZM66.2913 11.504C66.3339 11.5467 66.3979 11.4827 66.4833 11.312L66.4513 11.344C66.4086 11.3867 66.3873 11.3973 66.3873 11.376L66.2913 11.504ZM65.0753 14.192C65.0966 14.192 65.1179 14.1707 65.1393 14.128C65.2033 14.064 65.2139 14.032 65.1713 14.032C65.1499 14.032 65.1286 14.0427 65.1073 14.064C65.1073 14.128 65.0966 14.1707 65.0753 14.192ZM65.2033 13.296C65.1393 13.36 65.1073 13.392 65.1073 13.392V13.456C65.1073 13.456 65.1393 13.424 65.2033 13.36C65.2033 13.3173 65.2033 13.296 65.2033 13.296ZM65.2673 13.744C65.3099 13.7227 65.3313 13.712 65.3313 13.712V13.68C65.3953 13.616 65.3953 13.584 65.3313 13.584C65.3313 13.6267 65.3099 13.68 65.2673 13.744ZM71.8593 15.76C71.9019 15.76 71.9233 15.76 71.9233 15.76V15.696L71.8593 15.76ZM64.9473 13.808C64.9686 13.808 64.9899 13.7973 65.0113 13.776V13.744C64.9686 13.7867 64.9473 13.808 64.9473 13.808ZM73.8753 13.616C73.8539 13.6373 73.8433 13.648 73.8433 13.648V13.68C73.8646 13.6587 73.8753 13.6373 73.8753 13.616Z" fill="#4E342E"/>
</svg>
